<?xml version="1.0" encoding="UTF-8"?>
<svg id="Layer_2" data-name="Layer 2" xmlns="http://www.w3.org/2000/svg" xmlns:xlink="http://www.w3.org/1999/xlink" viewBox="0 0 452.87 355.78">
  <defs>
    <style>
      .cls-1 {
        fill: #9d9d9d;
      }

      .cls-2 {
        fill: #a7a7a7;
      }

      .cls-3 {
        fill: #939393;
      }

      .cls-4 {
        fill: #a82d2a;
      }

      .cls-5 {
        fill: #343434;
      }

      .cls-6 {
        fill: #783d1c;
      }

      .cls-7 {
        fill: #fff;
      }

      .cls-8 {
        fill: #f4fcff;
      }

      .cls-9 {
        fill: #a0c5c5;
      }

      .cls-10 {
        fill: #989898;
      }

      .cls-11 {
        fill: #d3cbaf;
      }

      .cls-12 {
        fill: #9893d8;
      }

      .cls-13 {
        clip-path: url(#clippath-2);
      }

      .cls-14 {
        isolation: isolate;
      }

      .cls-15 {
        fill: #ffbf99;
      }

      .cls-16 {
        opacity: .2;
      }

      .cls-17 {
        fill: #b55728;
      }

      .cls-18 {
        fill: #1a8e35;
      }

      .cls-19 {
        fill: #793d1c;
      }

      .cls-20 {
        fill: #c13333;
      }

      .cls-21 {
        fill: #0a2222;
      }

      .cls-22 {
        fill: #bdbdbd;
      }

      .cls-23 {
        fill: #fffaf5;
      }

      .cls-24 {
        fill: #ffba5f;
      }

      .cls-25 {
        clip-path: url(#clippath-1);
      }

      .cls-26 {
        fill: #b5adea;
      }

      .cls-27 {
        fill: #26aa4b;
      }

      .cls-28 {
        fill: #f26a6b;
      }

      .cls-29 {
        fill: #bae5e5;
      }

      .cls-30 {
        fill: #341c09;
      }

      .cls-31 {
        fill: #73434f;
      }

      .cls-32 {
        fill: #b0b0b0;
      }

      .cls-33 {
        fill: #efb185;
      }

      .cls-34 {
        fill: #b5dfde;
      }

      .cls-35 {
        fill: #5c3612;
      }

      .cls-36 {
        fill: #783d1d;
      }

      .cls-37 {
        fill: #cfd9e5;
      }

      .cls-38 {
        fill: #242424;
      }

      .cls-39 {
        fill: #e8eef6;
      }

      .cls-40 {
        fill: #8e8e8e;
      }

      .cls-41 {
        fill: #96be1b;
      }

      .cls-42 {
        fill: #c6dceb;
      }

      .cls-43 {
        fill: #152b2c;
      }

      .cls-44 {
        fill: #362221;
      }

      .cls-45 {
        opacity: .1;
      }

      .cls-46 {
        clip-path: url(#clippath);
      }

      .cls-47 {
        fill: #8ba6bc;
      }

      .cls-48 {
        fill: #dff7f5;
      }

      .cls-49 {
        fill: #9d2a23;
      }

      .cls-50 {
        fill: none;
      }

      .cls-51 {
        fill: #ffac33;
      }

      .cls-52 {
        fill: #f6958d;
      }

      .cls-53 {
        clip-path: url(#clippath-3);
      }

      .cls-54 {
        fill: #c1b99b;
      }

      .cls-55 {
        fill: #e6a376;
      }

      .cls-56 {
        fill: #e3faff;
      }

      .cls-57 {
        fill: #292929;
      }

      .cls-58 {
        fill: #5c313c;
      }

      .cls-59 {
        fill: #e8a476;
      }

      .cls-60 {
        fill: #f1b287;
      }

      .cls-61 {
        fill: #db9669;
      }

      .cls-62 {
        fill: #c4652e;
      }

      .cls-63 {
        fill: #acacac;
      }

      .cls-64 {
        fill: #7f7f7f;
      }

      .cls-65 {
        fill: #c3642e;
      }

      .cls-66 {
        fill: #a59b7e;
      }

      .cls-67 {
        fill: #137697;
      }

      .cls-68 {
        fill: #a85628;
      }

      .cls-69 {
        fill: #b4e1ed;
      }

      .cls-70 {
        fill: #111114;
      }

      .cls-71 {
        fill: #a3d6d4;
      }

      .cls-72 {
        fill: #0c5d79;
      }

      .cls-73 {
        fill: #221101;
      }

      .cls-74 {
        fill: #8da812;
      }

      .cls-75 {
        fill: #caefee;
      }

      .cls-76 {
        fill: #a2a2a2;
      }

      .cls-77 {
        fill: #be2d30;
      }
    </style>
    <clipPath id="clippath">
      <path class="cls-50" d="m220.54,110.6v.43c0,.07-.05.13-.13.17v-.43c.08-.05.13-.11.13-.18Z"/>
    </clipPath>
    <clipPath id="clippath-1">
      <path class="cls-50" d="m221.56,111.19v.43c0,.06-.04.12-.13.17v-.43c.08-.05.13-.11.13-.18Z"/>
    </clipPath>
    <clipPath id="clippath-2">
      <path class="cls-50" d="m222.6,111.79v.43c0,.06-.04.12-.13.18v-.43c.08-.05.13-.11.13-.18Z"/>
    </clipPath>
    <clipPath id="clippath-3">
      <path class="cls-50" d="m215.03,114.42v-.43c0,.15.04.31.12.45v.43c-.08-.15-.12-.3-.12-.46Z"/>
    </clipPath>
  </defs>
  <g id="Layer_1-2" data-name="Layer 1">
    <ellipse class="cls-28" cx="226.44" cy="225.04" rx="226.44" ry="130.74"/>
    <g>
      <g class="cls-16">
        <path d="m420.42,181.1c5.81,3.35,5.83,8.79.05,12.15l-11.52,6.69-213.43,124.04-17.8,10.34c-5.78,3.36-15.16,3.36-20.96,0l-124.3-71.75c-5.81-3.36-5.84-8.79-.06-12.15l242.74-141.07c5.77-3.36,15.17-3.37,20.99-.01l124.29,71.76Z"/>
      </g>
      <g>
        <g>
          <path class="cls-52" d="m418.43,160.08c0,.49-.09.98-.25,1.47-.02.05-.03.11-.04.16-.17.46-.41.91-.7,1.34-.06.08-.11.15-.15.22-.32.44-.71.86-1.15,1.27-.3.26-.68.5-1.02.75-.3.21-.55.44-.89.63l-11.19,6.49-.04,18.81,11.17-6.49c.06-.04.11-.07.18-.1.27-.17.45-.35.7-.51.36-.25.74-.51,1.03-.77.03-.02.06-.04.08-.08.34-.3.65-.63.91-.96.07-.06.11-.16.16-.23.06-.08.1-.15.14-.22.1-.14.2-.27.28-.41.15-.27.28-.55.39-.81.02-.05.02-.08.02-.13.03-.05.04-.1.06-.15.06-.18.12-.36.15-.53.06-.27.09-.56.11-.83v-.11h0c.01-5.47.02-10.95.04-16.4v-2.29s0-.09,0-.12Z"/>
          <path class="cls-52" d="m178.49,302.94c-.86.51-1.83.9-2.84,1.25-.35.13-.72.23-1.08.34-.48.12-.94.25-1.43.35-.58.11-1.17.23-1.77.31-.13.01-.27.04-.41.05-.8.09-1.62.13-2.44.13-.12,0-.23,0-.34,0-.82,0-1.62-.05-2.43-.13-.11-.01-.23-.03-.33-.04-.79-.08-1.58-.22-2.35-.39-.11-.03-.25-.07-.38-.1-.7-.17-1.38-.38-2.04-.62-.1-.03-.22-.07-.33-.1-.76-.3-1.51-.65-2.19-1.05l-120.7-69.68c-2.84-1.64-4.26-3.79-4.25-5.94l-.05,18.81c-.01,2.15,1.41,4.3,4.25,5.95l120.69,69.68c.65.37,1.35.7,2.08.99.03.02.08.03.11.05.11.04.23.07.35.11.43.15.84.31,1.3.44.23.07.46.11.72.18.12.04.25.06.4.1.12.03.25.06.38.09.46.1.95.18,1.43.25.16.01.34.03.5.05.13.01.26.02.39.04.17.01.34.04.51.06.48.03.94.06,1.42.07h1.46c.55-.01,1.08-.05,1.6-.11.06,0,.13-.01.19-.03.13-.01.27-.03.41-.05.41-.05.84-.11,1.23-.18.19-.03.35-.1.52-.13.51-.11.98-.22,1.46-.36.24-.07.51-.11.75-.19.12-.04.21-.11.33-.14,1-.35,1.97-.76,2.84-1.25l17.27-10.05.06-18.8-17.29,10.04Z"/>
          <path class="cls-52" d="m414.18,154.14c5.64,3.25,5.66,8.54.05,11.8l-11.19,6.49-207.26,120.45-17.29,10.04c-5.61,3.26-14.72,3.26-20.35,0l-120.7-69.68c-5.64-3.27-5.67-8.53-.06-11.8l235.72-136.99c5.61-3.26,14.73-3.27,20.38-.01l120.7,69.68Z"/>
          <polygon class="cls-52" points="403.04 172.44 195.78 292.89 54.66 211.42 261.93 90.97 403.04 172.44"/>
          <path class="cls-52" d="m367.29,137.3c1.51.87,1.54,2.66-.67,3.81-1.54.8-3.48,1.43-5,.56l-43.88-24.92c-1.51-.87.44-2.93,1.95-3.81,1.48-.86,3.91-.87,5.43,0l42.17,24.36Z"/>
          <path class="cls-52" d="m365.96,138.42c1.52.88,1.52,2.31.04,3.16-1.5.87-3.96.87-5.46,0l-42.18-24.35c-1.5-.86-1.5-2.28,0-3.16,1.49-.86,3.92-.87,5.43,0l42.17,24.35Z"/>
          <polygon class="cls-52" points="403.04 172.44 403 191.24 195.73 311.69 195.78 292.89 403.04 172.44"/>
        </g>
        <path class="cls-52" d="m120.5,254.47c5.09,2.94,5.12,7.72.06,10.65-5.06,2.94-13.28,2.92-18.37,0-5.1-2.94-5.14-7.71-.08-10.65,5.06-2.94,13.31-2.94,18.4,0Z"/>
      </g>
      <g>
        <path class="cls-16" d="m274.7,179.63c-15.06-8.69-39.39-8.69-54.35,0-6.51,3.79-10.17,8.59-10.99,13.54-21.21-9.2-51.36-8.23-70.55,2.92-21.02,12.21-20.91,32.02.25,44.24,21.16,12.21,55.36,12.21,76.38,0,11.76-6.83,16.9-16.04,15.46-24.96,14.36,4.04,32.11,2.64,43.97-4.25,14.96-8.69,14.88-22.79-.18-31.49Z"/>
        <path class="cls-6" d="m273.04,189.74c0,.17-.01.34-.02.5,0,.14-.02.29-.03.43-.01.12-.03.25-.05.37-.02.14-.04.29-.07.43-.02.12-.05.25-.08.38-.03.14-.07.28-.11.42-.03.12-.07.25-.11.38-.04.14-.09.28-.14.41-.05.12-.09.25-.14.37-.06.14-.12.29-.18.43-.05.12-.11.24-.17.36-.07.14-.14.28-.22.43-.06.12-.13.23-.19.35-.1.17-.2.33-.31.5-.07.1-.13.21-.21.31-.12.18-.26.36-.4.55-.07.09-.13.18-.2.26-.03.04-.06.08-.1.12-.15.18-.3.37-.46.55-.04.05-.09.1-.13.15-.19.21-.39.41-.6.62-.04.04-.08.07-.12.11-.15.15-.32.3-.48.45-.13.12-.27.24-.41.36-.13.11-.26.22-.39.33-.14.12-.29.23-.45.35-.14.11-.28.21-.43.32-.16.12-.32.23-.48.34-.15.1-.3.21-.46.31-.17.11-.35.22-.52.33-.22.13-.44.27-.66.4-.43.25-.87.48-1.31.71-.13.07-.26.13-.4.2-.34.17-.69.33-1.05.49-.12.05-.25.11-.37.17-.46.2-.94.4-1.42.58-.09.03-.18.07-.27.1-.4.15-.81.29-1.22.43-.18.06-.35.11-.53.17-.23.07-.45.14-.69.21-.2.06-.4.11-.6.17-.23.06-.47.13-.71.19-.2.05-.4.1-.6.15-.24.06-.48.11-.72.17-.2.04-.41.09-.62.13-.24.05-.48.1-.72.14-.2.04-.4.08-.6.12-.53.1-1.07.18-1.61.26-.08,0-.16.02-.24.03-.47.06-.94.12-1.41.17-.19.02-.37.04-.56.05-.3.03-.61.05-.91.07-.2.01-.39.03-.59.04-.32.02-.64.03-.96.05-.18,0-.36.02-.54.03-.27,0-.55,0-.82.01-.2,0-.4,0-.6,0-.29,0-.58,0-.87,0-.18,0-.37,0-.55,0-.26,0-.52-.02-.78-.03-.21,0-.41-.01-.61-.02-.25-.02-.5-.04-.75-.05-.21-.02-.43-.03-.64-.04-.25-.02-.5-.05-.75-.07-.21-.02-.42-.04-.62-.06-.45-.05-.9-.11-1.36-.17-.09,0-.18-.03-.27-.04-.37-.05-.74-.11-1.11-.17-.18-.03-.36-.06-.54-.1-.28-.05-.55-.1-.83-.15-.16-.04-.32-.07-.48-.11-.31-.07-.63-.14-.94-.21-.18-.04-.36-.09-.54-.13-.29-.08-.57-.15-.86-.23-.17-.05-.33-.09-.5-.14-.45-.13-.9-.27-1.34-.42-.08-.02-.17-.05-.25-.08-.51-.17-1.01-.36-1.5-.55-.21-.08-.42-.16-.62-.25-.15-.06-.31-.12-.46-.19-.23-.1-.46-.2-.68-.31-.14-.06-.28-.12-.42-.19-.25-.12-.49-.24-.73-.36-.11-.06-.22-.11-.33-.17-.35-.18-.7-.37-1.03-.57-5.63-3.25-8.44-7.52-8.43-11.78,0,1.11,0,2.22,0,3.33-.01,4.26,2.8,8.53,8.43,11.78.34.2.68.38,1.03.57.11.06.23.12.34.17.24.12.48.24.72.36.14.07.29.13.43.19.22.1.44.2.67.3.15.07.31.13.47.19.15.06.31.13.46.19.05.02.1.04.15.05.49.19,1,.38,1.51.55.08.03.17.05.25.08.44.15.89.29,1.35.42.07.02.15.05.22.07.09.03.17.05.26.07.29.08.58.16.87.23.18.04.35.09.53.13.32.08.64.15.97.22.12.02.23.05.35.08.03,0,.06,0,.1.02.3.06.6.12.91.17.15.03.3.06.46.08.43.08.87.14,1.31.21.02,0,.04,0,.07,0h0c.46.06.91.12,1.38.17.06,0,.13.01.19.02.39.04.79.08,1.18.11,0,0,.02,0,.02,0,.15.01.3.02.46.03.3.02.6.04.91.06.17,0,.35.01.52.02.29.01.58.02.87.03.02,0,.04,0,.06,0,.13,0,.27,0,.4,0,.32,0,.63,0,.95,0,.19,0,.38,0,.57,0,.28,0,.56,0,.84-.02.05,0,.11,0,.16,0,.13,0,.27-.01.4-.02.32-.02.64-.03.95-.05.19-.01.38-.03.57-.04.31-.02.62-.05.93-.08.1,0,.21-.01.31-.02.07,0,.14-.02.22-.03.49-.05.97-.11,1.45-.17.07,0,.14-.02.21-.03.54-.07,1.08-.16,1.62-.26.05-.01.1-.01.15-.02.14-.03.29-.06.43-.08.25-.05.49-.09.74-.15.21-.04.42-.09.62-.13.24-.05.47-.11.71-.17.21-.05.41-.1.62-.15.23-.06.46-.12.69-.18.2-.06.4-.11.6-.17.23-.07.46-.14.69-.21.1-.03.2-.06.3-.09.07-.02.14-.05.21-.07.42-.14.83-.28,1.24-.44.09-.03.18-.06.26-.09.48-.18.96-.38,1.42-.58.12-.05.24-.11.37-.16.36-.16.71-.33,1.05-.5.13-.06.26-.13.39-.2.45-.23.88-.46,1.31-.71.12-.07.23-.14.35-.21.11-.07.21-.14.33-.21.17-.1.33-.21.5-.32.16-.11.31-.21.47-.32.16-.11.32-.22.47-.33.15-.11.29-.22.44-.33.15-.11.29-.23.43-.34.14-.11.27-.22.4-.34.14-.12.27-.23.4-.35.06-.05.12-.1.17-.15.11-.1.22-.21.32-.31.04-.03.07-.07.11-.1.21-.21.41-.42.6-.62.04-.05.09-.1.13-.14.16-.18.32-.37.47-.56.03-.03.06-.07.09-.1.02-.02.03-.04.05-.06.06-.07.11-.14.16-.22.13-.18.27-.36.39-.54.07-.11.13-.21.2-.32.11-.16.21-.33.31-.5.03-.05.06-.09.09-.14.04-.07.07-.14.11-.21.08-.14.15-.28.22-.42.06-.12.12-.24.17-.37.06-.14.12-.28.18-.43.03-.07.06-.13.08-.2.02-.06.04-.12.06-.18.05-.14.09-.27.13-.41.04-.13.08-.26.11-.39.04-.13.07-.27.1-.41.02-.08.04-.15.06-.23,0-.05.01-.1.02-.16.03-.14.05-.28.06-.42.02-.12.04-.25.05-.38.02-.14.02-.28.03-.43,0-.08.02-.17.02-.25,0-.08,0-.17,0-.25h0c0-1.11,0-2.22,0-3.33Z"/>
        <path class="cls-65" d="m264.61,177.96c11.19,6.46,11.25,16.94.13,23.4-11.12,6.46-29.2,6.46-40.4,0-11.19-6.46-11.25-16.94-.13-23.4,11.12-6.46,29.21-6.46,40.4,0Z"/>
        <path class="cls-68" d="m248.68,107.9c-2.27-1.31-5.94-1.31-8.2,0-1.12.65-1.69,1.51-1.68,2.37h0s-.22,79.28-.22,79.28c0,.86.57,1.73,1.71,2.39.26.15.54.28.84.4.02,0,.03.01.05.02.05.02.1.03.15.05.17.06.33.12.51.17.09.03.19.05.29.07.05.02.11.03.17.04.05,0,.1.03.15.03.19.04.38.07.57.1.07.01.14.02.21.02.04,0,.09.01.14.02.07,0,.14.02.21.02.19.01.38.02.57.03.06,0,.12,0,.18,0h.16c.09,0,.17,0,.25,0,.22,0,.43-.02.64-.04.03,0,.05,0,.08-.01.05,0,.11-.02.16-.02.17-.02.34-.04.5-.07.07-.01.14-.04.21-.05.2-.04.39-.09.58-.15.1-.02.21-.04.31-.07.08-.03.16-.06.23-.09.08-.02.15-.05.23-.09.28-.11.55-.24.81-.38.03-.02.05-.03.07-.04.06-.04.12-.08.17-.12.06-.04.12-.08.18-.12.06-.05.12-.09.18-.14.05-.04.11-.09.16-.13.01-.01.03-.02.04-.03.03-.02.04-.05.07-.07.08-.08.17-.17.24-.26.01-.02.04-.04.05-.06.02-.02.03-.04.04-.06.05-.07.1-.14.14-.21.02-.02.04-.05.06-.08,0-.02.01-.03.02-.04.03-.06.06-.12.08-.18.02-.04.04-.07.05-.11,0,0,0-.02.01-.04.02-.05.03-.11.05-.16.01-.04.03-.08.04-.12,0-.01,0-.02,0-.03.01-.06.02-.12.02-.17,0-.04.01-.08.01-.12,0-.02,0-.03,0-.05l.22-79.29s0,.08,0,.12c.06-.9-.5-1.82-1.71-2.52Zm.6,4.36s.01-.01.02-.02h0s-.02.01-.02.02Zm.58-.57s.04-.05.06-.07h0s-.04.05-.06.07Zm.42-.72s-.03.06-.04.09c.01-.03.03-.06.04-.1h0Zm-.15.32s-.04.06-.05.09c.02-.03.04-.06.05-.09,0,0,0,0,0,0Zm.21-.55s.02-.07.02-.1h0s-.02.07-.02.1Zm-1.42,1.78h0c-.07.05-.13.09-.21.13.07-.04.14-.09.21-.13Zm-10.09-1.93c0-.06,0-.11-.02-.17,0,.06,0,.12.02.17Zm.4.94s-.01-.03-.02-.04c0,.01.01.03.02.04Zm-.19-.31s-.02-.06-.04-.09c.01.03.02.06.04.09Zm-.13-.32s-.02-.09-.03-.14c0,.05.02.09.03.14Z"/>
        <path class="cls-6" d="m296.82,116.87c0,.31-.02.61-.04.92-.01.26-.03.53-.06.79-.02.23-.05.46-.09.68-.04.26-.08.53-.12.79-.04.23-.09.46-.14.69-.06.26-.12.52-.19.77-.06.23-.13.46-.2.69-.08.25-.16.5-.25.75-.08.23-.17.46-.26.69-.1.26-.21.52-.33.79-.1.22-.2.44-.31.66-.13.26-.26.52-.4.78-.12.22-.23.43-.36.64-.18.31-.37.61-.56.91-.12.19-.25.39-.38.58-.23.34-.48.67-.73,1-.12.16-.23.32-.36.48-.06.07-.12.15-.18.22-.27.34-.56.67-.85,1-.08.09-.16.18-.24.27-.35.38-.71.76-1.09,1.14-.07.07-.15.14-.22.21-.29.28-.58.55-.89.82-.25.22-.5.44-.76.66-.24.2-.48.4-.72.6-.27.21-.54.43-.81.64-.26.2-.52.39-.78.59-.29.21-.59.42-.88.62-.27.19-.55.38-.83.56-.31.21-.63.41-.95.61-.4.25-.79.5-1.21.74-.78.45-1.59.88-2.4,1.3-.24.12-.49.24-.73.36-.63.31-1.27.61-1.92.9-.23.1-.45.21-.68.31-.85.37-1.72.73-2.6,1.06-.16.06-.33.12-.5.18-.74.27-1.49.54-2.24.79-.32.11-.64.21-.97.31-.42.13-.83.26-1.26.38-.36.11-.73.21-1.1.31-.43.12-.86.24-1.3.35-.37.1-.74.19-1.11.28-.44.11-.88.21-1.32.3-.38.08-.75.17-1.13.25-.44.09-.88.18-1.32.26-.37.07-.74.14-1.11.21-.98.17-1.96.33-2.94.47-.15.02-.3.03-.45.06-.85.12-1.72.22-2.58.31-.34.03-.68.07-1.02.1-.55.05-1.1.1-1.66.14-.36.03-.71.05-1.07.07-.58.04-1.17.06-1.75.09-.33.01-.66.03-1,.04-.5.02-1,.02-1.5.03-.37,0-.74.01-1.11.01-.53,0-1.06,0-1.59-.02-.34,0-.67,0-1.01-.01-.47-.01-.95-.04-1.42-.06-.38-.02-.75-.03-1.12-.05-.46-.02-.91-.06-1.37-.09-.39-.03-.79-.05-1.18-.08-.46-.04-.91-.09-1.37-.13-.38-.04-.76-.07-1.14-.11-.83-.09-1.66-.2-2.49-.31-.17-.02-.33-.05-.49-.08-.68-.1-1.36-.2-2.03-.32-.33-.06-.66-.12-.99-.18-.5-.09-1.01-.18-1.51-.29-.3-.06-.59-.13-.88-.19-.58-.13-1.15-.25-1.72-.39-.33-.08-.66-.16-.99-.25-.53-.13-1.05-.27-1.57-.42-.3-.09-.61-.17-.91-.26-.83-.24-1.64-.49-2.45-.76-.15-.05-.31-.1-.46-.15-.93-.32-1.85-.65-2.75-1.01-.38-.15-.76-.3-1.13-.46-.28-.11-.56-.23-.84-.35-.42-.18-.84-.37-1.25-.56-.26-.12-.51-.23-.77-.35-.45-.22-.9-.44-1.34-.67-.2-.1-.41-.2-.61-.31-.64-.34-1.27-.68-1.89-1.04-10.32-5.96-15.47-13.78-15.45-21.59,0,2.03-.01,4.07-.02,6.1-.02,7.81,5.13,15.63,15.45,21.59.62.36,1.25.7,1.89,1.04.21.11.42.21.63.32.44.22.87.44,1.32.66.26.12.53.24.79.36.41.19.81.37,1.22.55.28.12.57.24.86.36.28.11.56.24.84.35.09.04.18.06.27.1.91.35,1.82.69,2.76,1.01.15.05.31.1.46.15.81.27,1.63.52,2.46.76.14.04.27.09.41.13.16.04.32.08.47.13.53.15,1.06.29,1.6.42.32.08.64.16.97.24.59.14,1.18.27,1.77.4.22.05.43.1.65.15.06.01.12.02.17.03.55.11,1.11.21,1.66.32.28.05.55.11.83.16.8.14,1.6.26,2.4.38.04,0,.08.01.12.02,0,0,0,0,0,0,.84.12,1.68.22,2.52.32.12.01.24.02.35.03.72.08,1.44.15,2.16.21.01,0,.03,0,.05,0,.28.02.55.04.83.06.55.04,1.11.08,1.66.11.32.02.64.03.96.04.53.02,1.07.05,1.6.06.04,0,.07,0,.11,0,.25,0,.49,0,.74,0,.58,0,1.16.02,1.75.02.35,0,.7,0,1.05-.01.51,0,1.03-.01,1.54-.03.1,0,.19,0,.29,0,.24,0,.48-.02.73-.04.58-.03,1.16-.05,1.74-.09.35-.02.7-.05,1.05-.07.57-.04,1.14-.09,1.71-.14.19-.02.38-.03.58-.05.13-.01.26-.03.4-.05.89-.09,1.78-.2,2.66-.32.12-.02.25-.03.37-.05,1-.14,1.99-.3,2.97-.47.09-.02.18-.03.28-.04.26-.05.52-.1.78-.16.46-.09.91-.17,1.36-.27.38-.08.76-.16,1.14-.25.43-.1.87-.2,1.3-.3.38-.09.76-.19,1.13-.29.42-.11.85-.22,1.27-.34.37-.1.74-.21,1.1-.31.43-.13.85-.25,1.27-.39.18-.06.37-.11.56-.17.13-.04.26-.09.39-.14.77-.25,1.53-.52,2.27-.8.16-.06.32-.11.47-.17.88-.34,1.75-.69,2.61-1.06.22-.1.45-.2.67-.3.65-.29,1.29-.6,1.93-.91.24-.12.48-.24.72-.36.82-.42,1.62-.85,2.41-1.3.21-.13.43-.25.64-.38.21-.12.4-.25.6-.38.31-.19.62-.38.91-.58.29-.19.58-.39.86-.59.29-.2.58-.4.86-.6.27-.2.54-.4.8-.6.27-.21.54-.41.8-.62.25-.21.5-.41.74-.62.25-.21.5-.43.74-.64.1-.09.22-.18.32-.28.21-.19.4-.38.6-.57.07-.06.13-.13.2-.19.38-.38.74-.76,1.1-1.14.08-.09.16-.18.24-.26.3-.34.59-.68.87-1.02.05-.07.11-.13.16-.2.03-.04.06-.07.09-.11.1-.13.19-.26.29-.4.25-.33.49-.65.72-.98.13-.19.25-.38.38-.58.2-.3.39-.61.56-.92.05-.09.11-.17.16-.26.07-.13.13-.26.2-.38.14-.26.27-.52.4-.78.11-.22.21-.45.31-.67.12-.26.23-.52.33-.78.05-.12.11-.24.15-.36.04-.11.07-.22.11-.32.09-.25.17-.5.25-.74.07-.24.14-.47.21-.71.07-.25.13-.49.18-.74.03-.14.08-.29.1-.43.02-.09.03-.19.05-.29.05-.25.08-.51.12-.76.03-.23.07-.47.09-.7.03-.26.04-.52.06-.78,0-.16.03-.31.03-.47,0-.15,0-.31,0-.46h0c0-2.03,0-4.07.02-6.1Z"/>
        <path class="cls-37" d="m296.81,116.57v36.56s-3.45,1.45-4.87,5.17c-1.42,3.72-3.69,4.01-12.5,3.15-8.8-.85-7.67.57-14.2,3.12-6.53,2.56-12.78,3.69-19.03,1.99-6.25-1.7-10.22-3.41-17.32-1.7-7.1,1.7-11.65-2.56-17.61-4.26-5.97-1.7-11.08-6.99-16.76-7.47-5.68-.48-4.64-6.73-4.45-9.19.19-2.46,2.09-27.65,2.09-27.65l104.66.27Z"/>
        <path class="cls-39" d="m281.37,95.28c20.51,11.84,20.62,31.04.24,42.88-20.37,11.84-53.51,11.84-74.02,0-20.5-11.84-20.61-31.04-.24-42.87,20.38-11.84,53.52-11.84,74.02,0Z"/>
        <g>
          <g class="cls-45">
            <path d="m268.75,124.21c3.23,1.85,3.23,4.87.05,6.72-3.18,1.85-8.35,1.85-11.58,0-3.21-1.85-3.23-4.85-.04-6.7,3.18-1.85,8.37-1.85,11.56,0Z"/>
          </g>
          <g>
            <path class="cls-51" d="m268.94,125.73c2.44,1.41,2.44,3.69.03,5.1-2.41,1.4-6.34,1.4-8.78,0-2.43-1.41-2.44-3.68-.03-5.08,2.43-1.41,6.35-1.41,8.78,0Z"/>
            <polygon class="cls-51" points="256.38 118.46 258.36 128.61 270.75 128.61 272.74 118.21 256.38 118.46"/>
            <path class="cls-24" d="m270.33,114.85c3.21,1.87,3.22,4.87.04,6.72-3.19,1.85-8.36,1.85-11.57-.01-3.21-1.85-3.23-4.85-.04-6.7,3.18-1.85,8.37-1.86,11.57-.01Z"/>
            <path class="cls-27" d="m268.55,115.76c2.36,1.36,2.36,3.55.02,4.91-2.32,1.35-6.1,1.35-8.45,0-2.35-1.36-2.36-3.54-.03-4.9,2.33-1.34,6.12-1.35,8.46,0Z"/>
          </g>
          <path class="cls-27" d="m258.46,118.83s-6.03-7.63-.1-21.36c0,0,5.21,6.57,2.22,23.42,0,0-1.16-.43-2.12-2.06Z"/>
          <path class="cls-18" d="m258.42,97.57c.12,5.29.41,14.46,1.14,22.64.56.51,1.01.68,1.01.68,2.78-15.71-1.54-22.48-2.15-23.33Z"/>
          <path class="cls-27" d="m261.41,117.9s-4.83-8.45,3.08-21.13c0,0,4.19,7.27-1.27,23.49,0,0-1.09-.61-1.8-2.35Z"/>
          <path class="cls-18" d="m264.49,96.77c-.67,5.24-2.16,14.35-2.65,22.54.48.61.9.84.9.84,5.93-14.17,2.22-22.46,1.75-23.38Z"/>
          <g>
            <path class="cls-27" d="m261.72,121.23s-7.23-2.55-9.04-14.21c0,0,6.24,2.2,11.33,14.7,0,0-.96.2-2.29-.49Z"/>
            <path class="cls-18" d="m252.77,107.05c2.3,3.49,6.35,9.49,10.28,14.64.59.11.97.03.97.03-4.74-11.65-10.48-14.35-11.25-14.67Z"/>
          </g>
          <g>
            <path class="cls-27" d="m264.94,120.11s-3.88-4.43-.7-12.89c0,0,3.34,3.81,2.05,14.08,0,0-.72-.23-1.35-1.18Z"/>
            <path class="cls-18" d="m264.28,107.27c.24,3.19.68,8.72,1.37,13.63.36.29.64.39.64.39,1.2-9.56-1.62-13.53-2.01-14.02Z"/>
          </g>
          <g>
            <path class="cls-27" d="m266.66,117.26s-3.71-6.72,2.69-16.63c0,0,3.21,5.8-1.31,18.51,0,0-.84-.48-1.38-1.88Z"/>
            <path class="cls-18" d="m269.4,100.72c-.59,4.13-1.56,11.31-2.05,17.76.37.47.69.66.69.66,4.22-11.85,1.71-17.68,1.36-18.42Z"/>
          </g>
          <g>
            <path class="cls-27" d="m267.61,118.52s-.88-5.67,6.15-10.98c0,0,.78,4.88-5.65,12.65,0,0-.46-.56-.5-1.67Z"/>
            <path class="cls-18" d="m273.77,107.61c-1.48,2.74-3.98,7.53-5.99,11.94.15.43.33.64.33.64,5.98-7.24,5.72-11.97,5.66-12.58Z"/>
          </g>
        </g>
        <g>
          <g>
            <g>
              <path class="cls-42" d="m341.36,65.89c-1.11,1.1-4.6,1.7-4.6,1.7-2.62.7-3.56-1.33-3.89-2.26l-3.1-21.11c-1.06-4.32-.96-8.59.96-11.11h0c2.47-3.22,8.12-2.88,9.38,2.65,0,0,4.36,27.04,1.26,30.14Z"/>
              <path class="cls-55" d="m307.83,74.27c-3.5-.93-4.19-2.06-3.3-2.2,4.87-.8,6.04-3.56,6.04-3.56-1.99.78-3.61.21-4.18-.23-.46-.36-.18-1.47.87-1.26,1.05.21,2.4-.24,3.1-.6,2.08-1.05,3.09-.98,3.82-.85,2.05.37,3.45-.18,3.45-.18.13-.04.28-.1.45-.16l1.3,4.58c-1.38.55-2.54,1.11-4.24,2.38-3.21,2.38-6.71,2.24-7.31,2.08Z"/>
              <path class="cls-42" d="m341.16,65.17c.59-3.17-2.55-5.87-5.78-5.9l-19.43,5.21s1.27,2.09,1.33,3.26c.15,2.77-1.21,3.94-1.21,3.94,0,0,23.75.65,25.09-6.51Z"/>
            </g>
            <g class="cls-16">
              <path d="m320.53,165.66c-11.89,6.86-11.95,18-.14,24.87,11.82,6.87,31.04,6.87,42.93,0,11.89-6.87,11.96-18,.14-24.87-11.82-6.87-31.04-6.87-42.94,0Z"/>
            </g>
            <path class="cls-55" d="m347.94,90.43s1.08-3.65-2.29,15.39c0,0-3.6,14.7-.57,23.41,2.18,6.27,2.91,10.29-1.94,31.5-.68,2.98,3.89,8.01-3.23,10.85-4.88,1.94-1.62,9.47-9.04,6.29-2.54-1.08,1.82-7.12,3.62-11,1.34-2.88,2.02-3.75.71-13.12-.48-3.45-.68-21.09-3.82-27.89-3.14-6.81-7.84-32.77-3.57-46.84,0,0,9.01,10.62,20.12,11.44Z"/>
            <g>
              <path class="cls-38" d="m342.99,161.18s2.68,3.33,1.26,6.03c-1.42,2.7-2.74,3.38-3.69,5.84-.96,2.46-.86,4.02-4.71,5.3-3.85,1.28-7.58,2.05-6.94-.61.64-2.66,3-6.26,3-6.26,0,0,.44,4.09,5.08,1.66,3.17-1.67,7.05-8.48,6.01-11.97Z"/>
              <path class="cls-38" d="m344.41,166.85s-.82,4.89-.69,7l-1.39,1.14s.2-4.69-.04-5.19c0,0,1.91-2.95,2.13-2.95Z"/>
              <polygon class="cls-38" points="342.55 169.39 341.31 171.46 341.31 174.26 342.43 174.99 342.55 169.39"/>
            </g>
            <path class="cls-33" d="m357.53,88.93s4.49,12.03,0,26.07c0,0-4.1,14.26-1.68,22.96,1.74,6.27,3.5,10.73-4.46,29.8-.89,2.14,5.01,3.41-1.92,9.06-2.68,2.18-4.87,12.06-10.2,8.02-2.15-1.63-.37-3.12,3.21-10.05,0,0,3.42-5.94,2.9-13.27-.49-6.9.39-20.74-2.23-27.58-2.61-6.85-7.46-29.23-4.49-45,0,0,13.69,7.34,18.85,0Z"/>
            <path class="cls-43" d="m364.6,44.43c1.57,2.61,1.56,6.09-1.07,13.64-3.83,10.98-7.89,17.82-5.22,27.98,2.46,9.38,6.69,18.81,2.08,36.44-2.4,9.19-32.74,6.57-34.27-10.75-.98-11.16-1.79-18.2,2.81-32.4,3.91-12.1-7.52-19.83-2.8-30.6,2.31-5.26,4.19-19.2,12.35-17.57,8.17,1.63,22.06,6.54,26.11,13.25Z"/>
            <path class="cls-21" d="m364.6,44.43c1.57,2.61,1.56,6.09-1.07,13.64-3.83,10.98-7.89,17.82-5.22,27.98,2.46,9.38,6.69,18.81,2.08,36.44-.88,3.35-5.46,5.12-11.01,5.19-1.57-12.65-1.86-34.59.33-42.35,2.42-8.57-4.68-17.5-3.38-26.49,1.25-8.64,10.45-17.58,14.19-18.67,1.73,1.31,3.16,2.73,4.08,4.24Z"/>
            <path class="cls-8" d="m337.66,33.99c-3.48,4.94-1.1,9.77-1.1,9.77l4.45-1.26c-.08-.04-1.35-5.02,0-10.69,0,0-2.87,1.5-3.35,2.18Z"/>
            <path class="cls-8" d="m341.01,42.5l1.2,4.05s11.21-1.32,12.17-10.16c0,0-8.12,7.08-13.37,6.11Z"/>
            <g>
              <path class="cls-30" d="m341.36,10.49s10.46,6.53,10.25,18.32c-.02,1.7-2.82,9.28-5.87,8.22,0,0-14.78-17.53-8.71-26.71,3.6-5.44,11.25-9.68,20-2.48l-15.69,2.65Z"/>
              <g>
                <path class="cls-59" d="m337.54,26.41s3.86,5.32,1.46,10.51c-.66,1.43-2.48,7.37,6.87,5.61,0,0,9.87-4.08,7.25-7.18-1.76-2.06-3.38-4.96.17-14.58l-15.76,5.64Z"/>
                <path class="cls-61" d="m353.12,35.35c.28.34.4.67.4,1-8.87,1.07-14.4-5.55-14.4-5.55l12.11-9.16h0s.55.43,1.36,1.15c-2.6,8.01-1.09,10.66.53,12.56Z"/>
              </g>
              <path class="cls-60" d="m340.4,9.11s-2.52.65-3.17,7.95c-.07.81-1.44,1.77-1.94,3.75-.49,2.01-1.58,10.1,3.07,11.32,3.37.89,11.96-.61,15.43-8.58,3.45-7.97-2.72-19.06-13.38-14.44Z"/>
              <path class="cls-73" d="m340.64,12.07s11.19-3.94,10.2,17.43l.23,1.17c9.98-5.62,9.96-14.23,9.96-14.23,0,0-.34-12.26-11.7-11.15,0,0-7.64,2.25-8.69,6.78Z"/>
              <path class="cls-30" d="m340.64,12.07s-2.56-1.18-4.87,5.42c0,0,1.05-18.79,18.61-11.6,0,0-10.78-.33-13.74,6.18Z"/>
              <path class="cls-60" d="m349.5,24.62s1.61-3.94,3.83-2.53c.71.45,1.43,1.35.16,3.34-1.28,1.99-3.73,3.7-5.54,3.33l1.54-4.14Z"/>
            </g>
            <path class="cls-8" d="m357.56,79.38s-2.06,1.17-5.96,1.96c0,0,.88,23.43-8.47,27.27-11.2,4.59-18.51-4.41-18.97-9.11-.86-8.63,2.62-20.43,5.46-27.62,0,0,2.48,11.19,28.47,3.25l-.53,4.25Z"/>
            <g>
              <path class="cls-38" d="m351.4,168.73s2.65,3.35,1.21,6.04c-1.45,2.69-2.77,3.36-3.75,5.81-.97,2.45-.89,4.02-4.76,5.27-3.86,1.25-7.6,1.99-6.94-.67.66-2.65,3.06-6.23,3.06-6.23,0,0,.4,4.09,5.06,1.7,3.19-1.64,7.12-8.41,6.11-11.92Z"/>
              <path class="cls-38" d="m352.77,174.41s-.87,4.88-.75,6.99l-1.4,1.13s.23-4.69,0-5.19c0,0,1.93-2.93,2.15-2.93Z"/>
              <polygon class="cls-38" points="350.89 176.94 349.63 179 349.6 181.8 350.72 182.53 350.89 176.94"/>
            </g>
            <path class="cls-69" d="m369.01,76.24c-1,1.2-4.41,2.11-4.41,2.11-2.55.94-3.66-.99-4.09-1.89l-5.04-20.73c-1.46-4.2-1.75-8.46-.08-11.15h0c2.17-3.44,7.82-3.62,9.58,1.77,0,0,6.85,26.52,4.04,29.89Z"/>
            <g>
              <path class="cls-69" d="m297.32,75.03c.02.24.04.47.08.71.03.19.09.37.14.56.06.22.12.44.2.66.06.18.14.36.22.54.11.23.2.46.33.69.17.32.35.63.56.93.04.05.08.11.12.16.22.3.45.59.71.89.05.06.1.12.16.19.28.31.59.61.93.91.21.19.45.38.69.57.2.16.39.32.61.48.26.19.54.37.82.55.27.18.53.35.81.53.48.28.98.53,1.49.78.14.07.27.13.41.19.46.21.93.42,1.41.6.07.02.13.05.2.08.51.2,1.04.37,1.58.54.38.12.76.23,1.15.33.29.08.57.16.86.23.4.1.81.18,1.22.26.28.06.56.12.84.17.83.15,1.67.26,2.52.35.26.03.51.04.78.07.5.04.99.08,1.49.1.32.01.65.02.98.03.4,0,.8,0,1.21,0,.34,0,.67-.02,1.01-.03.37-.01.75-.03,1.12-.06.34-.02.69-.05,1.03-.08.37-.04.73-.08,1.1-.12.33-.04.66-.09.99-.14.39-.06.79-.13,1.18-.21.3-.06.61-.12.91-.18.47-.1.92-.22,1.38-.34.29-.08.59-.15.87-.23.16-.05.31-.1.46-.14.47-.15.92-.3,1.37-.47.12-.04.24-.08.35-.13.42-.16.82-.34,1.23-.52.17-.08.36-.15.53-.23.56-.27,1.11-.55,1.63-.85,4.36-2.52,6.54-5.82,6.52-9.12,0,.84,0,1.67,0,2.51,0,3.3-2.17,6.6-6.53,9.12-.52.3-1.06.58-1.62.84-.2.09-.4.17-.6.26-.32.14-.64.29-.97.42-.06.02-.12.04-.18.06-.13.05-.26.09-.39.14-.44.16-.89.31-1.34.46-.16.05-.31.1-.46.14-.11.03-.21.07-.32.1-.19.05-.38.09-.57.14-.46.12-.91.23-1.37.34-.12.03-.24.06-.36.09-.18.04-.36.06-.54.09-.4.08-.79.15-1.19.21-.16.02-.31.06-.46.08-.17.02-.34.04-.51.06-.37.05-.74.09-1.11.12-.18.02-.35.04-.53.06-.16.01-.32.01-.49.03-.38.03-.76.05-1.13.06-.19,0-.37.02-.56.03-.15,0-.29,0-.44,0-.41,0-.81,0-1.21,0-.2,0-.4,0-.61,0-.12,0-.24-.02-.36-.02-.5-.02-1-.06-1.5-.1-.2-.01-.4-.02-.59-.04-.06,0-.12-.02-.18-.02-.85-.09-1.69-.2-2.52-.35-.04,0-.08,0-.12-.02-.25-.04-.48-.11-.72-.15-.41-.08-.82-.16-1.22-.26-.29-.07-.58-.15-.86-.23-.39-.1-.77-.21-1.15-.33-.08-.03-.17-.04-.24-.07-.45-.15-.9-.31-1.34-.47-.06-.02-.12-.05-.19-.08-.48-.19-.95-.39-1.41-.6-.14-.06-.27-.12-.41-.19-.51-.25-1.02-.5-1.5-.78-.09-.05-.18-.11-.26-.16-.21-.12-.39-.26-.59-.39-.26-.17-.53-.34-.78-.52-.22-.16-.43-.33-.63-.5-.23-.18-.46-.36-.67-.55-.04-.04-.1-.07-.14-.11-.29-.26-.54-.53-.79-.8-.05-.06-.1-.12-.15-.17-.15-.17-.3-.33-.43-.51-.11-.13-.2-.27-.3-.4-.04-.05-.07-.1-.11-.14-.18-.25-.34-.51-.49-.77-.03-.06-.05-.11-.08-.17-.12-.23-.22-.46-.32-.69-.06-.14-.13-.27-.19-.4-.02-.05-.02-.09-.04-.14-.08-.22-.13-.44-.19-.66-.04-.15-.1-.3-.13-.45,0-.04,0-.08-.01-.12-.04-.23-.06-.46-.08-.69-.01-.15-.05-.31-.05-.46,0-.06,0-.13,0-.19v-2.51c0,.21.03.42.05.64Z"/>
              <path class="cls-56" d="m303.8,65.27c-8.67,5-8.72,13.11-.11,18.12,8.61,5,22.61,5,31.28,0,8.66-5,8.7-13.11.1-18.11-8.61-5-22.61-5-31.27,0Z"/>
            </g>
            <path class="cls-55" d="m336.41,87.69c-3.57-.6-4.36-1.66-3.49-1.89,4.78-1.25,5.69-4.1,5.69-4.1-1.92.96-3.58.54-4.18.16-.5-.31-.31-1.45.75-1.34,1.07.11,2.37-.46,3.04-.88,1.98-1.23,2.99-1.26,3.73-1.19,2.08.18,3.42-.5,3.42-.5.12-.05.27-.12.43-.2l1.72,4.43c-1.33.68-2.42,1.35-4,2.76-2.97,2.67-6.47,2.85-7.09,2.75Z"/>
            <path class="cls-69" d="m368.76,75.54c.3-3.21-3.08-5.61-6.3-5.34l-18.86,6.99s1.45,1.96,1.62,3.13c.41,2.74-.84,4.04-.84,4.04,0,0,23.71-1.55,24.38-8.81Z"/>
            <g>
              <g>
                <path class="cls-71" d="m306.19,80.09s0,.01,0,.02c.02.07.06.14.11.21,0,.02.01.03.03.04.05.06.1.13.18.19.04.04.09.07.14.11.05.04.09.07.16.11.2.12.43.2.68.27.03,0,.07.02.1.02.25.06.51.09.77.09h.03c.27,0,.55-.03.8-.09.01,0,.02,0,.03,0,.26-.06.51-.15.72-.28.44-.25.66-.59.66-.92v.43c0,.33-.21.67-.66.92-.1.06-.21.11-.32.15-.09.04-.18.07-.27.09-.04.02-.09.02-.13.04,0,0-.02,0-.03,0-.02,0-.05.01-.07.02-.07.01-.15.03-.22.04-.08.01-.15.02-.21.02-.08,0-.16.01-.22.01h-.23c-.08,0-.17,0-.25-.02-.1-.01-.19-.02-.29-.04-.04,0-.08-.02-.12-.03-.04,0-.07-.02-.11-.03-.06-.02-.13-.03-.19-.04-.18-.06-.34-.13-.49-.22-.01,0-.02-.01-.03-.02-.03-.02-.06-.05-.1-.07-.06-.04-.12-.08-.16-.12,0,0,0,0-.01,0-.06-.05-.1-.1-.14-.15-.01-.01-.01-.03-.02-.03-.01-.01-.02-.03-.03-.04-.01-.02-.03-.04-.04-.06-.03-.04-.05-.08-.06-.13,0,0,0-.02,0-.02,0,0,0-.02,0-.02,0-.03-.02-.05-.02-.08,0-.04-.01-.09-.01-.13v-.45c0,.08.01.15.03.23Z"/>
                <path class="cls-75" d="m306.81,78.94c-.87.51-.87,1.32,0,1.82.86.5,2.27.5,3.14,0,.88-.5.88-1.32.02-1.82-.86-.5-2.27-.5-3.15,0Z"/>
                <path class="cls-71" d="m307.58,79.38c-.44.26-.44.67,0,.92.44.26,1.15.26,1.59,0,.44-.26.45-.67,0-.93-.43-.25-1.15-.25-1.6,0Z"/>
              </g>
              <g>
                <path class="cls-29" d="m307.99,73.34s0,0,0,0c.02.03.05.05.09.08.08.04.19.07.29.07h0c.11,0,.21-.02.29-.07.08-.05.12-.11.12-.17l.03,6.58c0,.06-.04.12-.12.17-.02,0-.04.02-.06.03-.01,0-.03,0-.05.01-.02,0-.03.01-.04.01-.01,0-.03,0-.04,0-.01,0-.03,0-.04,0-.02,0-.03,0-.04,0h-.04s-.03,0-.04,0c-.02,0-.04,0-.06,0-.02,0-.05,0-.07-.02-.03,0-.06-.02-.09-.04t0,0s-.04-.02-.05-.04c-.01,0-.02-.02-.03-.03,0,0,0,0,0,0h0s0-.01,0-.02c0,0,0-.02-.01-.03,0,0,0-.01,0-.02,0,0,0-.02,0-.03l-.02-6.57h0s.01.05.03.08Z"/>
                <path class="cls-9" d="m308.08,73.07c-.16.09-.16.25,0,.35.16.09.43.09.59,0,.16-.09.16-.25,0-.34-.16-.09-.43-.09-.59,0Z"/>
              </g>
              <path class="cls-34" d="m307.22,72.58c-.65.37-.66.98,0,1.36.64.37,1.69.37,2.34,0,.65-.38.65-.98,0-1.36-.64-.38-1.7-.38-2.34,0Z"/>
              <polygon class="cls-34" points="312.45 67.12 309.99 73.48 306.77 73.48 304.27 67.03 312.45 67.12"/>
              <path class="cls-77" d="m305.9,67.87c-.05.06-.09.12-.13.19.04-.06.08-.13.13-.19Z"/>
              <path class="cls-77" d="m306.1,67.67c-.06.05-.12.1-.16.16.04-.05.1-.1.16-.16Z"/>
              <path class="cls-77" d="m305.66,68.31c1.56.76,3.82.76,5.39.01-.02-.08.07.39-.07.68l-1.57,4.05h-.02c-.04.11-.12.21-.27.3-.42.24-1.11.24-1.54,0-.14-.08-.22-.19-.26-.3h-.02l-1.59-4.08c-.1-.22-.12-.44-.05-.66Z"/>
              <path class="cls-77" d="m310.96,68.07c-.04-.06-.08-.13-.13-.19.05.06.09.12.13.19Z"/>
              <path class="cls-77" d="m310.79,67.83c-.05-.05-.1-.11-.16-.16.06.05.12.1.16.16Z"/>
              <path class="cls-77" d="m310.57,67.63c-.07-.07-.17-.13-.27-.19.1.06.19.12.27.19Z"/>
              <path class="cls-77" d="m306.43,67.44c-.11.06-.19.12-.27.18.08-.06.17-.12.27-.18Z"/>
              <g class="cls-16">
                <path class="cls-34" d="m306.76,73.44s0-.01,0-.02l-2.48-6.4,8.18.09-2.44,6.31s0,.01,0,.02v.03h-.02c-.07.17-.21.32-.44.45-.65.37-1.7.37-2.34,0-.22-.13-.36-.29-.43-.45h0v-.03Z"/>
              </g>
              <g class="cls-16">
                <path class="cls-7" d="m310.01,73.43s0,.01,0,.02v.03h-.02c-.07.17-.21.32-.44.45-.29.16-.64.24-1.01.26l1.85-7.09,2.05.02-2.44,6.31Z"/>
              </g>
              <path class="cls-48" d="m305.4,64.7c-1.66.96-1.67,2.51-.02,3.47,1.65.96,4.33.96,5.99,0,1.65-.96,1.66-2.51.01-3.47-1.65-.96-4.33-.96-5.99,0Z"/>
              <path class="cls-29" d="m305.67,64.86c-1.51.87-1.52,2.28-.02,3.15,1.49.87,3.93.87,5.44,0,1.5-.87,1.51-2.28.01-3.15-1.5-.87-3.93-.87-5.43,0Z"/>
              <path class="cls-77" d="m305.77,68.06s0,0,0,0c.04-.06.08-.13.13-.19,0-.01.03-.03.04-.05.04-.05.1-.1.16-.16.02-.02.03-.03.05-.05.08-.06.17-.12.27-.18,1.07-.62,2.8-.62,3.88,0,.1.06.19.12.27.19.02.02.04.03.06.05.06.05.12.1.16.16.01.02.03.03.04.05.05.06.09.12.13.19,0,0,0,0,0,0-1.48.78-3.73.78-5.19-.01Z"/>
            </g>
            <g>
              <g>
                <path class="cls-71" d="m327.59,71.44s0,.01,0,.02c.02.07.06.14.11.21,0,.01.01.03.03.04.05.06.11.13.18.19.04.04.09.07.14.11.05.04.09.07.15.11.2.12.44.2.68.26.03,0,.07.02.1.02.25.05.51.09.77.09h.03c.27,0,.55-.03.8-.09.02,0,.02,0,.03,0,.26-.07.51-.15.72-.28.44-.25.66-.59.66-.92v.43c0,.33-.21.67-.66.92-.1.06-.21.11-.32.15-.08.03-.17.06-.27.09-.04.01-.09.02-.13.04,0,0-.02,0-.03,0-.02,0-.04.01-.07.02-.07.02-.15.03-.22.04-.07.01-.14.02-.21.02-.08,0-.15.01-.22.01h-.23c-.08,0-.17-.01-.24-.02-.1-.01-.19-.02-.29-.04-.04,0-.08-.02-.12-.03-.04,0-.07-.02-.11-.02-.06-.02-.13-.03-.19-.05-.18-.06-.34-.13-.49-.22,0,0-.02-.01-.03-.02-.04-.02-.07-.05-.1-.07-.05-.04-.11-.08-.16-.12,0,0,0,0-.02-.01-.05-.05-.09-.1-.13-.15-.01-.01-.02-.02-.03-.04-.01-.01-.02-.03-.03-.04-.01-.02-.03-.04-.04-.06-.03-.04-.05-.08-.06-.13,0,0,0-.01,0-.02,0,0,0-.02,0-.03-.01-.03-.02-.05-.02-.08,0-.04-.01-.09-.01-.13v-.45c0,.08.01.16.03.23Z"/>
                <path class="cls-75" d="m328.21,70.29c-.87.5-.87,1.32-.01,1.82.87.5,2.28.5,3.14,0,.87-.5.88-1.32.02-1.82-.86-.5-2.27-.5-3.15,0Z"/>
                <path class="cls-71" d="m328.98,70.73c-.44.26-.44.67,0,.92.44.25,1.15.25,1.59,0,.45-.26.45-.67,0-.93-.44-.26-1.15-.26-1.6,0Z"/>
              </g>
              <g>
                <path class="cls-29" d="m329.38,64.69s0,0,0,0c.02.03.05.06.09.08.08.04.19.07.29.07h0c.11,0,.21-.02.29-.07.08-.05.12-.11.12-.17l.02,6.58c0,.06-.04.12-.12.17-.02,0-.04.02-.06.03-.02,0-.03,0-.05.02-.01,0-.03,0-.04.01-.02,0-.02,0-.04,0-.01,0-.03,0-.04,0-.01,0-.03,0-.04,0h-.05s-.03,0-.04,0c-.02,0-.04,0-.06,0-.03,0-.05,0-.08-.02-.03,0-.06-.02-.09-.04,0,0,0,0,0,0-.02-.01-.04-.02-.05-.04-.01,0-.02-.02-.03-.03,0,0,0,0-.01,0h0s0-.01,0-.02c0-.01,0-.02-.01-.03,0,0,0-.01,0-.02,0,0,0-.02,0-.02l-.02-6.57h0s0,.05.03.08Z"/>
                <path class="cls-9" d="m329.47,64.43c-.16.09-.16.25,0,.35.16.09.43.09.59,0,.16-.09.16-.25,0-.34-.16-.09-.43-.09-.59,0Z"/>
              </g>
              <path class="cls-34" d="m328.61,63.93c-.65.37-.65.98,0,1.36.64.37,1.69.37,2.34,0,.64-.38.64-.98,0-1.36-.64-.38-1.7-.38-2.34,0Z"/>
              <polygon class="cls-34" points="333.84 58.47 331.38 64.83 328.17 64.83 325.66 58.38 333.84 58.47"/>
              <path class="cls-77" d="m327.29,59.23c-.05.06-.09.12-.13.18.03-.06.08-.12.13-.18Z"/>
              <path class="cls-77" d="m327.49,59.02c-.06.05-.12.1-.16.16.05-.05.11-.1.16-.16Z"/>
              <path class="cls-77" d="m327.06,59.66c1.56.76,3.82.76,5.39.01-.02-.08.07.38-.08.68l-1.57,4.05h-.02c-.04.11-.12.21-.27.3-.43.25-1.11.25-1.54,0-.14-.08-.21-.19-.26-.3h-.02l-1.58-4.08c-.1-.22-.12-.44-.05-.66Z"/>
              <path class="cls-77" d="m332.35,59.42c-.03-.06-.08-.13-.13-.19.05.06.1.12.13.19Z"/>
              <path class="cls-77" d="m332.19,59.19c-.05-.05-.11-.11-.16-.16.06.05.12.1.16.16Z"/>
              <path class="cls-77" d="m331.97,58.98c-.08-.07-.17-.13-.27-.19.1.06.19.12.27.19Z"/>
              <path class="cls-77" d="m327.82,58.79c-.11.06-.19.12-.27.18.08-.07.17-.13.27-.18Z"/>
              <g class="cls-16">
                <path class="cls-34" d="m328.16,64.8s0,0,0-.01l-2.49-6.4,8.18.09-2.44,6.31s0,.01,0,.02v.03h-.02c-.07.16-.21.32-.43.45-.65.37-1.7.37-2.34,0-.22-.13-.36-.29-.43-.45h0v-.04Z"/>
              </g>
              <g class="cls-16">
                <path class="cls-7" d="m331.4,64.78s0,.01,0,.02v.03h-.02c-.07.16-.21.32-.43.45-.29.16-.65.24-1.02.26l1.85-7.09,2.06.02-2.44,6.31Z"/>
              </g>
              <path class="cls-48" d="m326.79,56.05c-1.66.96-1.67,2.51-.02,3.47,1.65.96,4.33.96,5.99,0,1.65-.96,1.66-2.51.02-3.47-1.65-.96-4.33-.96-5.99,0Z"/>
              <path class="cls-29" d="m327.07,56.21c-1.51.87-1.52,2.28-.02,3.15,1.49.87,3.93.87,5.44,0,1.5-.87,1.51-2.28.01-3.15-1.5-.87-3.93-.87-5.43,0Z"/>
              <path class="cls-77" d="m327.16,59.42s0,0,0,0c.03-.06.08-.12.13-.18.01-.01.03-.03.04-.05.05-.05.11-.1.16-.16.02-.01.03-.03.05-.05.08-.07.17-.13.27-.18,1.07-.62,2.81-.62,3.88,0,.1.06.19.12.27.19.02.02.04.03.05.05.06.05.12.1.16.16.01.02.03.03.03.05.05.06.1.12.13.19,0,0,0,0,0,0-1.48.78-3.73.77-5.19-.01Z"/>
            </g>
            <g>
              <g>
                <path class="cls-71" d="m316.94,75.56s0,.02,0,.02c.02.07.06.14.1.2,0,.01.02.03.03.04.05.07.1.13.18.19.04.04.09.07.13.11.05.04.1.07.16.11.2.12.44.2.68.27.04,0,.07.02.11.02.25.06.51.09.77.09h.03c.28,0,.55-.03.81-.09.01,0,.02,0,.03,0,.26-.06.51-.15.72-.28.44-.25.66-.59.66-.92v.43c0,.33-.21.67-.66.92-.1.06-.21.11-.32.16-.09.03-.18.06-.28.09-.04.01-.08.02-.13.04-.01,0-.02,0-.04,0-.02,0-.04.01-.07.02-.07.01-.15.03-.22.04-.07.01-.14.02-.21.02-.07,0-.15.01-.22.01h-.23c-.08,0-.17-.01-.25-.02-.09-.01-.19-.02-.28-.04-.04,0-.08-.02-.12-.03-.04,0-.07-.02-.11-.02-.06-.02-.13-.03-.19-.05-.18-.06-.34-.13-.49-.22-.01,0-.02-.01-.03-.02-.04-.02-.06-.05-.1-.07-.05-.04-.12-.08-.16-.12,0,0,0,0-.02-.01-.06-.05-.09-.1-.14-.15-.01-.01-.01-.02-.02-.04-.01-.01-.02-.03-.03-.04,0-.02-.03-.04-.04-.06-.03-.04-.05-.08-.06-.12,0,0,0-.01,0-.02,0-.01,0-.02,0-.02-.01-.03-.02-.05-.02-.08,0-.04-.01-.09-.02-.13v-.45c0,.08.02.16.04.23Z"/>
                <path class="cls-75" d="m317.56,74.41c-.87.5-.88,1.32-.01,1.82.87.5,2.27.5,3.14,0,.88-.5.88-1.32.02-1.82-.86-.5-2.27-.5-3.15,0Z"/>
                <path class="cls-71" d="m318.34,74.85c-.45.26-.45.67,0,.93.44.25,1.15.25,1.59,0,.45-.26.45-.67,0-.93-.43-.26-1.15-.26-1.59,0Z"/>
              </g>
              <g>
                <path class="cls-29" d="m318.73,68.81s0,0,0,0c.02.03.05.06.08.08.08.05.19.07.3.07h0c.11,0,.21-.02.29-.07.08-.05.12-.11.12-.17l.03,6.57c0,.06-.05.13-.12.17-.02,0-.04.02-.06.03-.02,0-.04.01-.05.02-.02,0-.03,0-.04.01-.02,0-.02,0-.05,0,0,0-.03,0-.04,0-.02,0-.03,0-.04,0h-.04s-.03,0-.04,0c-.02,0-.03,0-.05,0-.02,0-.05,0-.08-.02-.03-.01-.06-.02-.09-.04,0,0,0,0,0,0-.01-.01-.04-.02-.05-.04-.01,0-.02-.02-.03-.03,0,0,0,0,0,0h0s0,0-.01-.02c0,0,0-.02,0-.02,0,0,0-.01,0-.02,0,0,0-.02,0-.02l-.02-6.57h0s.01.06.03.09Z"/>
                <path class="cls-9" d="m318.82,68.54c-.16.1-.16.25,0,.35.16.09.43.09.59,0,.16-.09.16-.25,0-.34-.16-.1-.43-.1-.59,0Z"/>
              </g>
              <path class="cls-34" d="m317.96,68.05c-.65.37-.65.98,0,1.36.64.37,1.7.37,2.34,0,.65-.38.65-.98,0-1.36-.64-.37-1.7-.37-2.34,0Z"/>
              <polygon class="cls-34" points="323.19 62.59 320.74 68.95 317.52 68.95 315.01 62.5 323.19 62.59"/>
              <path class="cls-77" d="m316.65,63.34c-.05.06-.09.12-.13.19.04-.06.08-.12.13-.19Z"/>
              <path class="cls-77" d="m316.85,63.14c-.06.05-.12.1-.16.16.05-.05.11-.11.16-.16Z"/>
              <path class="cls-77" d="m316.42,63.78c1.55.76,3.81.77,5.39.01-.02-.08.07.39-.08.68l-1.57,4.05h-.02c-.04.11-.12.21-.27.29-.43.25-1.11.25-1.54,0-.14-.08-.22-.19-.27-.29h-.02l-1.58-4.08c-.1-.22-.12-.44-.05-.66Z"/>
              <path class="cls-77" d="m321.71,63.54c-.04-.06-.08-.12-.13-.19.05.06.1.12.13.19Z"/>
              <path class="cls-77" d="m321.54,63.3c-.05-.05-.1-.1-.16-.16.06.05.12.11.16.16Z"/>
              <path class="cls-77" d="m321.32,63.1c-.08-.06-.17-.13-.27-.19.1.06.19.12.27.19Z"/>
              <path class="cls-77" d="m317.18,62.91c-.1.06-.19.12-.27.18.08-.06.17-.13.27-.18Z"/>
              <g class="cls-16">
                <path class="cls-34" d="m317.51,68.92s0,0,0-.01l-2.49-6.41,8.18.09-2.44,6.31s0,.01,0,.02v.03h-.02c-.07.16-.21.32-.43.45-.65.37-1.7.37-2.34,0-.22-.13-.36-.29-.43-.45h0v-.03Z"/>
              </g>
              <g class="cls-16">
                <path class="cls-7" d="m320.76,68.9s0,.01,0,.02v.03h-.02c-.07.16-.21.32-.43.45-.29.16-.64.24-1.01.26l1.85-7.09,2.05.02-2.44,6.31Z"/>
              </g>
              <path class="cls-48" d="m316.15,60.17c-1.66.96-1.67,2.51-.02,3.47,1.65.96,4.33.96,5.99,0,1.66-.96,1.66-2.51.02-3.47-1.65-.96-4.33-.96-5.99,0Z"/>
              <path class="cls-29" d="m316.42,60.33c-1.51.87-1.52,2.28-.02,3.15,1.5.87,3.94.87,5.44,0,1.51-.87,1.51-2.28.01-3.15-1.5-.87-3.93-.87-5.43,0Z"/>
              <path class="cls-77" d="m316.51,63.53s0,0,0,0c.04-.06.08-.12.13-.19.01-.01.02-.03.04-.05.05-.05.11-.11.16-.16.02-.02.03-.03.05-.05.08-.06.17-.13.27-.18,1.07-.62,2.81-.62,3.88,0,.1.06.19.12.27.19.02.02.04.03.06.05.06.05.12.11.16.16.02.02.03.03.04.05.05.06.1.12.13.19,0,0,0,0,0,.01-1.48.78-3.73.78-5.2-.01Z"/>
            </g>
            <g>
              <g>
                <path class="cls-71" d="m308.47,67.59s0,.01.01.02c.02.07.06.14.1.2,0,.02.02.03.03.04.05.06.1.13.18.19.04.04.09.07.14.1.05.04.09.08.16.11.2.12.43.2.68.26.04,0,.07.02.11.02.25.05.51.09.77.09h.03c.27,0,.54-.03.81-.09,0,0,.02,0,.03,0,.26-.07.51-.15.72-.28.44-.26.67-.59.66-.92v.43c0,.33-.21.67-.66.92-.1.06-.21.11-.32.15-.08.03-.17.07-.27.09-.04.01-.09.02-.13.04-.01,0-.02,0-.03,0-.02,0-.04.01-.07.01-.07.02-.14.03-.22.04-.07.01-.14.02-.21.02-.08,0-.15.01-.22.01h-.23c-.08,0-.17-.01-.25-.02-.09-.01-.19-.02-.28-.04-.04,0-.08-.02-.12-.03-.04,0-.07-.02-.11-.02-.06-.02-.13-.03-.19-.05-.18-.06-.34-.13-.49-.22,0,0-.02-.01-.03-.02-.04-.02-.06-.05-.1-.07-.06-.04-.12-.08-.16-.12,0,0,0,0-.02,0-.06-.05-.1-.1-.14-.15-.01,0-.01-.02-.03-.04,0-.01-.02-.03-.03-.04,0-.02-.03-.04-.04-.06-.02-.04-.04-.08-.06-.13,0,0,0-.01,0-.02,0,0,0-.02,0-.02,0-.03-.02-.05-.03-.08,0-.04,0-.09-.01-.13v-.45c0,.08.01.15.03.23Z"/>
                <path class="cls-75" d="m309.09,66.44c-.87.5-.87,1.32,0,1.82.86.5,2.27.5,3.14,0,.88-.5.88-1.32.02-1.82-.87-.5-2.27-.5-3.15,0Z"/>
                <path class="cls-71" d="m309.87,66.88c-.45.26-.45.67,0,.93.44.25,1.15.25,1.6,0,.44-.26.45-.67,0-.93-.44-.25-1.15-.25-1.6,0Z"/>
              </g>
              <g>
                <path class="cls-29" d="m310.26,60.84s0,0,0,0c.02.03.05.06.09.08.08.04.18.07.29.07h0c.11,0,.21-.02.3-.07.08-.05.12-.11.12-.17l.03,6.58c0,.06-.05.12-.12.17-.03,0-.04.02-.06.03-.02,0-.03,0-.05.01-.02,0-.03,0-.05.01-.01,0-.02,0-.04,0-.01,0-.02,0-.04,0-.01,0-.03,0-.04,0h-.04s-.03,0-.04,0c-.02,0-.04,0-.05,0-.03,0-.05,0-.07-.02-.03,0-.06-.02-.09-.04t0,0s-.04-.02-.05-.04c-.01-.01-.02-.02-.03-.03,0,0,0,0,0,0h0s0-.01,0-.02c0,0,0-.02,0-.03,0,0,0-.01,0-.02,0,0,0-.02,0-.02l-.02-6.57h0s0,.06.03.08Z"/>
                <path class="cls-9" d="m310.36,60.58c-.16.1-.16.25,0,.35.16.09.43.09.59,0,.16-.09.16-.25,0-.34-.16-.09-.43-.09-.59,0Z"/>
              </g>
              <path class="cls-34" d="m309.49,60.08c-.65.37-.65.98,0,1.36.64.37,1.69.37,2.34,0,.65-.38.65-.98,0-1.36-.65-.38-1.7-.38-2.35,0Z"/>
              <polygon class="cls-34" points="314.72 54.63 312.27 60.98 309.05 60.98 306.55 54.53 314.72 54.63"/>
              <path class="cls-77" d="m308.18,55.38c-.05.06-.09.12-.13.18.04-.06.08-.12.13-.18Z"/>
              <path class="cls-77" d="m308.38,55.18c-.06.05-.12.1-.17.16.05-.05.11-.1.17-.16Z"/>
              <path class="cls-77" d="m307.95,55.81c1.56.76,3.82.76,5.39.01-.02-.08.07.38-.08.68l-1.57,4.05h-.02c-.04.11-.12.21-.27.3-.43.24-1.11.24-1.54,0-.14-.08-.22-.19-.26-.3h-.02l-1.59-4.08c-.1-.22-.12-.44-.05-.66Z"/>
              <path class="cls-77" d="m313.23,55.57c-.03-.07-.07-.13-.12-.19.05.06.1.12.12.19Z"/>
              <path class="cls-77" d="m313.07,55.34c-.05-.05-.1-.11-.16-.16.06.05.12.1.16.16Z"/>
              <path class="cls-77" d="m312.85,55.13c-.08-.07-.17-.13-.27-.19.1.06.19.12.27.19Z"/>
              <path class="cls-77" d="m308.71,54.94c-.1.06-.19.12-.27.18.08-.06.17-.12.27-.18Z"/>
              <g class="cls-16">
                <path class="cls-34" d="m309.04,60.95s0-.01,0-.02l-2.49-6.4,8.18.1-2.44,6.31s0,.01,0,.02v.03h-.01c-.07.16-.21.32-.43.45-.65.37-1.7.37-2.34,0-.22-.13-.36-.29-.43-.45h0v-.03Z"/>
              </g>
              <g class="cls-16">
                <path class="cls-7" d="m312.29,60.93s0,.01,0,.02v.03h-.01c-.07.16-.21.32-.43.45-.29.16-.64.24-1.02.26l1.86-7.09,2.05.02-2.44,6.31Z"/>
              </g>
              <path class="cls-48" d="m307.68,52.2c-1.66.96-1.67,2.51-.02,3.47,1.65.96,4.34.96,5.99,0,1.66-.96,1.66-2.51.02-3.47-1.65-.96-4.33-.96-5.99,0Z"/>
              <path class="cls-29" d="m307.95,52.37c-1.51.87-1.52,2.28-.02,3.15,1.5.87,3.94.87,5.44,0,1.5-.87,1.51-2.28,0-3.15-1.5-.87-3.93-.87-5.43,0Z"/>
              <path class="cls-77" d="m308.05,55.57s0,0,0,0c.04-.06.08-.12.13-.18.02-.01.03-.03.04-.05.05-.05.11-.1.17-.16.02-.02.03-.03.05-.05.08-.06.17-.12.27-.18,1.07-.62,2.81-.62,3.88,0,.1.06.19.12.27.19.02.02.04.03.05.05.06.05.12.1.16.16.02.02.03.03.04.05.05.06.1.12.12.19,0,0,0,0,0,0-1.47.78-3.73.78-5.19-.01Z"/>
            </g>
            <g>
              <g>
                <path class="cls-71" d="m325.18,82.5s0,.02.01.02c.02.06.06.14.11.2,0,.01,0,.03.02.04.05.07.1.13.18.19.04.04.09.07.14.11.05.04.1.07.16.11.19.12.43.2.68.26.03,0,.07.02.1.02.25.06.51.09.77.09h.03c.28,0,.55-.03.81-.09.01,0,.02,0,.03,0,.26-.06.5-.15.72-.28.44-.25.66-.59.66-.92v.43c0,.33-.21.67-.66.92-.1.06-.21.11-.32.16-.09.03-.18.06-.27.09-.04.01-.09.02-.13.03-.02,0-.02,0-.03,0-.02,0-.04.02-.07.02-.08.01-.15.03-.22.04-.07.01-.14.02-.21.02-.08,0-.15.01-.22.01h-.23c-.08,0-.17-.01-.25-.02-.1,0-.19-.02-.29-.04-.04,0-.08-.02-.12-.03-.04,0-.07-.01-.11-.02-.06-.02-.13-.03-.19-.05-.17-.06-.34-.13-.48-.22-.02,0-.03,0-.04-.02-.04-.02-.07-.05-.1-.07-.06-.04-.12-.08-.16-.12,0,0,0,0-.01,0-.05-.05-.1-.1-.14-.15-.01-.01-.01-.03-.03-.04-.01-.01-.02-.03-.02-.04-.02-.02-.03-.04-.04-.06-.02-.04-.04-.08-.06-.13,0,0,0-.01,0-.02,0,0,0-.02,0-.02-.01-.03-.02-.05-.03-.08,0-.04,0-.09-.01-.13v-.45c0,.08.01.15.03.23Z"/>
                <path class="cls-75" d="m325.8,81.35c-.87.5-.87,1.32,0,1.82.86.5,2.27.5,3.14,0,.87-.5.88-1.32.01-1.83-.86-.5-2.27-.5-3.15,0Z"/>
                <path class="cls-71" d="m326.57,81.79c-.44.26-.45.67,0,.92.44.25,1.15.25,1.59,0,.44-.26.45-.67,0-.93-.44-.25-1.16-.25-1.6,0Z"/>
              </g>
              <g>
                <path class="cls-29" d="m326.97,75.75s0,0,0,0c.02.03.05.06.09.08.08.05.19.07.29.07h0c.11,0,.21-.02.29-.07.08-.05.12-.11.12-.17l.03,6.57c0,.06-.04.13-.12.17-.02,0-.04.02-.06.03-.02,0-.03,0-.05.01-.01,0-.03,0-.04.01-.01,0-.02,0-.04,0-.01,0-.02,0-.04,0-.01,0-.03,0-.04,0h-.04s-.04,0-.04,0c-.02,0-.04,0-.06-.01-.03,0-.05,0-.07-.02-.04,0-.06-.02-.09-.04,0,0,0,0,0,0-.02,0-.04-.02-.05-.04-.01,0-.02-.02-.02-.03,0,0,0,0-.01,0h0s0-.01,0-.02c0,0-.02-.02-.02-.02,0,0,0-.01,0-.02,0,0,0-.01,0-.02l-.02-6.57h0s.01.06.03.08Z"/>
                <path class="cls-9" d="m327.06,75.48c-.16.1-.16.25,0,.35.16.09.43.09.59,0,.16-.09.16-.25,0-.34-.16-.1-.43-.1-.59,0Z"/>
              </g>
              <path class="cls-34" d="m326.2,74.98c-.65.38-.65.98,0,1.36.64.37,1.69.37,2.34,0,.65-.37.65-.98,0-1.36-.65-.37-1.7-.37-2.34,0Z"/>
              <polygon class="cls-34" points="331.43 69.53 328.97 75.89 325.76 75.89 323.25 69.43 331.43 69.53"/>
              <path class="cls-77" d="m324.88,70.28c-.05.06-.1.12-.13.19.03-.06.07-.12.13-.19Z"/>
              <path class="cls-77" d="m325.08,70.08c-.05.05-.12.1-.16.16.04-.05.11-.11.16-.16Z"/>
              <path class="cls-77" d="m324.65,70.71c1.56.76,3.82.76,5.39.01-.02-.08.07.39-.08.68l-1.57,4.05h-.02c-.04.11-.12.21-.27.29-.42.25-1.11.25-1.54,0-.14-.09-.22-.19-.27-.29h-.02l-1.58-4.08c-.1-.22-.12-.44-.05-.66Z"/>
              <path class="cls-77" d="m329.94,70.47c-.04-.06-.08-.12-.13-.19.05.06.09.12.13.19Z"/>
              <path class="cls-77" d="m329.77,70.24c-.04-.05-.1-.1-.16-.16.06.05.12.11.16.16Z"/>
              <path class="cls-77" d="m329.56,70.03c-.08-.06-.17-.13-.27-.19.1.06.19.12.27.19Z"/>
              <path class="cls-77" d="m325.41,69.85c-.11.06-.19.12-.27.18.08-.06.17-.13.27-.18Z"/>
              <g class="cls-16">
                <path class="cls-34" d="m325.74,75.85s0-.01,0-.01l-2.49-6.41,8.18.09-2.44,6.31s0,.01,0,.02v.03h-.02c-.07.16-.21.32-.43.45-.65.37-1.7.37-2.34,0-.22-.13-.36-.29-.43-.45h0v-.04Z"/>
              </g>
              <g class="cls-16">
                <path class="cls-7" d="m328.99,75.84s0,.01,0,.02v.03h-.02c-.07.16-.21.32-.43.45-.29.16-.64.24-1.01.26l1.86-7.09,2.05.02-2.44,6.31Z"/>
              </g>
              <path class="cls-48" d="m324.38,67.11c-1.66.96-1.67,2.51-.02,3.47,1.65.96,4.33.96,6,0,1.65-.96,1.66-2.51.01-3.47-1.65-.96-4.33-.96-5.99,0Z"/>
              <path class="cls-29" d="m324.66,67.27c-1.51.87-1.52,2.28-.02,3.15,1.5.87,3.94.87,5.44,0,1.5-.87,1.51-2.28.01-3.15-1.5-.87-3.93-.87-5.43,0Z"/>
              <path class="cls-77" d="m324.75,70.47s0,0,.01,0c.03-.06.07-.12.13-.19.01-.01.02-.03.04-.05.04-.05.11-.11.16-.16.02-.02.04-.03.05-.05.08-.06.17-.13.27-.18,1.07-.62,2.81-.62,3.87,0,.1.06.19.12.27.19.02.02.04.03.05.05.06.05.12.11.16.16.02.02.03.03.04.05.05.06.09.12.13.19,0,0,0,0,0,.01-1.48.78-3.73.78-5.2-.01Z"/>
            </g>
            <g>
              <g>
                <path class="cls-71" d="m306.19,80.09s0,.01,0,.02c.02.07.06.14.11.21,0,.02.01.03.03.04.05.06.1.13.18.19.04.04.09.07.14.11.05.04.09.07.16.11.2.12.43.2.68.27.03,0,.07.02.1.02.25.06.51.09.77.09h.03c.27,0,.55-.03.8-.09.01,0,.02,0,.03,0,.26-.06.51-.15.72-.28.44-.25.66-.59.66-.92v.43c0,.33-.21.67-.66.92-.1.06-.21.11-.32.15-.09.04-.18.07-.27.09-.04.02-.09.02-.13.04,0,0-.02,0-.03,0-.02,0-.05.01-.07.02-.07.01-.15.03-.22.04-.08.01-.15.02-.21.02-.08,0-.16.01-.22.01h-.23c-.08,0-.17,0-.25-.02-.1-.01-.19-.02-.29-.04-.04,0-.08-.02-.12-.03-.04,0-.07-.02-.11-.03-.06-.02-.13-.03-.19-.04-.18-.06-.34-.13-.49-.22-.01,0-.02-.01-.03-.02-.03-.02-.06-.05-.1-.07-.06-.04-.12-.08-.16-.12,0,0,0,0-.01,0-.06-.05-.1-.1-.14-.15-.01-.01-.01-.03-.02-.03-.01-.01-.02-.03-.03-.04-.01-.02-.03-.04-.04-.06-.03-.04-.05-.08-.06-.13,0,0,0-.02,0-.02,0,0,0-.02,0-.02,0-.03-.02-.05-.02-.08,0-.04-.01-.09-.01-.13v-.45c0,.08.01.15.03.23Z"/>
                <path class="cls-75" d="m306.81,78.94c-.87.51-.87,1.32,0,1.82.86.5,2.27.5,3.14,0,.88-.5.88-1.32.02-1.82-.86-.5-2.27-.5-3.15,0Z"/>
                <path class="cls-71" d="m307.58,79.38c-.44.26-.44.67,0,.92.44.26,1.15.26,1.59,0,.44-.26.45-.67,0-.93-.43-.25-1.15-.25-1.6,0Z"/>
              </g>
              <g>
                <path class="cls-29" d="m307.99,73.34s0,0,0,0c.02.03.05.05.09.08.08.04.19.07.29.07h0c.11,0,.21-.02.29-.07.08-.05.12-.11.12-.17l.03,6.58c0,.06-.04.12-.12.17-.02,0-.04.02-.06.03-.01,0-.03,0-.05.01-.02,0-.03.01-.04.01-.01,0-.03,0-.04,0-.01,0-.03,0-.04,0-.02,0-.03,0-.04,0h-.04s-.03,0-.04,0c-.02,0-.04,0-.06,0-.02,0-.05,0-.07-.02-.03,0-.06-.02-.09-.04t0,0s-.04-.02-.05-.04c-.01,0-.02-.02-.03-.03,0,0,0,0,0,0h0s0-.01,0-.02c0,0,0-.02-.01-.03,0,0,0-.01,0-.02,0,0,0-.02,0-.03l-.02-6.57h0s.01.05.03.08Z"/>
                <path class="cls-9" d="m308.08,73.07c-.16.09-.16.25,0,.35.16.09.43.09.59,0,.16-.09.16-.25,0-.34-.16-.09-.43-.09-.59,0Z"/>
              </g>
              <path class="cls-34" d="m307.22,72.58c-.65.37-.66.98,0,1.36.64.37,1.69.37,2.34,0,.65-.38.65-.98,0-1.36-.64-.38-1.7-.38-2.34,0Z"/>
              <polygon class="cls-34" points="312.45 67.12 309.99 73.48 306.77 73.48 304.27 67.03 312.45 67.12"/>
              <path class="cls-77" d="m305.9,67.87c-.05.06-.09.12-.13.19.04-.06.08-.13.13-.19Z"/>
              <path class="cls-77" d="m306.1,67.67c-.06.05-.12.1-.16.16.04-.05.1-.1.16-.16Z"/>
              <path class="cls-77" d="m305.66,68.31c1.56.76,3.82.76,5.39.01-.02-.08.07.39-.07.68l-1.57,4.05h-.02c-.04.11-.12.21-.27.3-.42.24-1.11.24-1.54,0-.14-.08-.22-.19-.26-.3h-.02l-1.59-4.08c-.1-.22-.12-.44-.05-.66Z"/>
              <path class="cls-77" d="m310.96,68.07c-.04-.06-.08-.13-.13-.19.05.06.09.12.13.19Z"/>
              <path class="cls-77" d="m310.79,67.83c-.05-.05-.1-.11-.16-.16.06.05.12.1.16.16Z"/>
              <path class="cls-77" d="m310.57,67.63c-.07-.07-.17-.13-.27-.19.1.06.19.12.27.19Z"/>
              <path class="cls-77" d="m306.43,67.44c-.11.06-.19.12-.27.18.08-.06.17-.12.27-.18Z"/>
              <g class="cls-16">
                <path class="cls-34" d="m306.76,73.44s0-.01,0-.02l-2.48-6.4,8.18.09-2.44,6.31s0,.01,0,.02v.03h-.02c-.07.17-.21.32-.44.45-.65.37-1.7.37-2.34,0-.22-.13-.36-.29-.43-.45h0v-.03Z"/>
              </g>
              <g class="cls-16">
                <path class="cls-7" d="m310.01,73.43s0,.01,0,.02v.03h-.02c-.07.17-.21.32-.44.45-.29.16-.64.24-1.01.26l1.85-7.09,2.05.02-2.44,6.31Z"/>
              </g>
              <path class="cls-48" d="m305.4,64.7c-1.66.96-1.67,2.51-.02,3.47,1.65.96,4.33.96,5.99,0,1.65-.96,1.66-2.51.01-3.47-1.65-.96-4.33-.96-5.99,0Z"/>
              <path class="cls-29" d="m305.67,64.86c-1.51.87-1.52,2.28-.02,3.15,1.49.87,3.93.87,5.44,0,1.5-.87,1.51-2.28.01-3.15-1.5-.87-3.93-.87-5.43,0Z"/>
              <path class="cls-77" d="m305.77,68.06s0,0,0,0c.04-.06.08-.13.13-.19,0-.01.03-.03.04-.05.04-.05.1-.1.16-.16.02-.02.03-.03.05-.05.08-.06.17-.12.27-.18,1.07-.62,2.8-.62,3.88,0,.1.06.19.12.27.19.02.02.04.03.06.05.06.05.12.1.16.16.01.02.03.03.04.05.05.06.09.12.13.19,0,0,0,0,0,0-1.48.78-3.73.78-5.19-.01Z"/>
            </g>
          </g>
          <path class="cls-73" d="m349.54,6.37c0,3.52,2.85,6.37,6.37,6.37s6.37-2.85,6.37-6.37-2.85-6.37-6.37-6.37-6.37,2.85-6.37,6.37Z"/>
        </g>
        <g>
          <g>
            <g>
              <path class="cls-71" d="m205.61,110.12s0,.02,0,.03c.04.11.09.21.16.32.01.02.03.04.04.06.07.1.16.2.27.29.06.05.14.11.21.16.07.06.14.12.23.17.3.17.66.3,1.03.4.05.02.11.03.16.04.37.08.76.13,1.16.13h.05c.42,0,.83-.05,1.22-.14.02,0,.03,0,.04,0,.4-.1.77-.23,1.09-.42.67-.39,1-.89,1-1.4v.65c0,.5-.33,1-1,1.39-.15.09-.31.16-.48.23-.13.05-.27.1-.41.14-.07.02-.13.03-.2.05-.02,0-.03,0-.05.01-.03,0-.07.01-.1.02-.11.02-.22.04-.33.06-.11.01-.22.03-.33.03-.11,0-.22.02-.33.02-.04,0-.09,0-.13,0h-.05c-.06,0-.12,0-.18,0-.12,0-.25-.01-.38-.03-.14-.02-.29-.03-.42-.06-.06,0-.12-.03-.18-.04-.06-.01-.11-.02-.17-.04-.09-.03-.2-.04-.29-.07-.27-.09-.52-.19-.74-.32-.01,0-.03-.02-.04-.03-.06-.03-.1-.08-.16-.11-.08-.06-.17-.12-.24-.18,0,0-.02-.01-.02-.02-.08-.07-.15-.15-.21-.22,0-.02-.02-.04-.03-.06-.01-.02-.02-.04-.04-.06-.02-.03-.04-.06-.06-.09-.04-.06-.06-.13-.09-.19,0,0,0-.02,0-.03,0-.01,0-.03,0-.04-.01-.04-.03-.08-.03-.12-.02-.06-.02-.12-.02-.19v-.65s0-.02,0-.03c0,.12.02.23.06.35Z"/>
              <path class="cls-75" d="m206.54,108.39c-1.31.76-1.32,1.99-.02,2.75,1.31.76,3.44.76,4.75,0,1.32-.77,1.33-2.01.03-2.76-1.31-.76-3.44-.76-4.76,0Z"/>
              <path class="cls-71" d="m207.71,109.05c-.66.39-.67,1.01,0,1.4.66.39,1.74.39,2.41,0,.67-.39.67-1.01.01-1.4-.66-.39-1.75-.39-2.42,0Z"/>
            </g>
            <g>
              <path class="cls-29" d="m208.32,99.91s0,0,0,0c.03.05.08.09.14.12.12.07.28.11.44.11h0c.16,0,.32-.04.45-.11.13-.07.18-.16.18-.26l.03,9.94c0,.09-.06.19-.18.26-.03.01-.06.03-.09.04-.02,0-.05.01-.08.02-.02,0-.04.01-.07.02-.02,0-.04,0-.06.01-.02,0-.04,0-.06,0h-.13s-.05,0-.07,0c-.03,0-.05,0-.08-.01-.04,0-.08-.01-.12-.03-.04-.01-.09-.04-.13-.06,0,0,0,0,0,0-.03-.02-.06-.04-.08-.06-.01-.01-.03-.03-.04-.04t0-.01s0,0,0,0c0,0-.01-.01-.01-.02,0,0-.01-.02-.02-.03,0-.01,0-.02,0-.03,0-.02,0-.02,0-.04l-.03-9.94h0s.01.08.04.13Z"/>
              <path class="cls-9" d="m208.46,99.52c-.25.14-.25.38,0,.52.24.14.64.14.89,0,.25-.14.25-.37,0-.51-.25-.14-.65-.14-.89,0Z"/>
            </g>
            <path class="cls-29" d="m204.16,86.54c-2.6,1.5-2.61,3.93-.03,5.43,2.58,1.5,6.78,1.5,9.38,0,2.59-1.5,2.6-3.93.02-5.43-2.58-1.5-6.78-1.5-9.37,0Z"/>
            <path class="cls-34" d="m204.13,91.98c2.58,1.5,6.78,1.5,9.38,0,1.01-.58,1.71-1.96,1.94-2.71.05.48,0,1.62,0,2.12,0,5.17-2.96,9.36-6.61,9.36s-6.61-4.19-6.61-9.36c0-.49-.07-1.65-.02-2.12.23.74.94,2.14,1.93,2.71Z"/>
            <path class="cls-29" d="m202.73,87.76c-.2.69-.34,1.42-.42,2.19-.22-.73-.08-1.49.42-2.19Z"/>
            <path class="cls-29" d="m215.35,89.9c-.08-.75-.23-1.46-.43-2.15.5.68.64,1.43.43,2.15Z"/>
            <path class="cls-29" d="m204.16,86.54c-2.6,1.5-2.61,3.93-.03,5.43,2.58,1.5,6.78,1.5,9.38,0,2.59-1.5,2.6-3.93.02-5.43-2.58-1.5-6.78-1.5-9.37,0Z"/>
            <path class="cls-29" d="m204.54,86.77c-2.39,1.37-2.4,3.6-.03,4.98,2.37,1.38,6.22,1.38,8.6,0,2.37-1.37,2.38-3.6.02-4.97-2.37-1.38-6.22-1.38-8.59,0Z"/>
            <path class="cls-29" d="m206.91,98.06c-1.07.61-1.07,1.61-.01,2.23,1.06.62,2.78.62,3.85,0,1.07-.61,1.07-1.61.01-2.23-1.06-.62-2.78-.62-3.85,0Z"/>
            <path class="cls-49" d="m213.87,91.21c.04.36,0,1.22,0,1.59,0,3.88-2.22,7.03-4.97,7.03s-4.97-3.15-4.97-7.03c0-.36-.06-1.24-.02-1.59.17.56,9.78.57,9.95,0Z"/>
            <path class="cls-48" d="m204.16,86.54c-2.6,1.5-2.61,3.93-.03,5.43,2.58,1.5,6.78,1.5,9.38,0,2.59-1.5,2.6-3.93.02-5.43-2.58-1.5-6.78-1.5-9.37,0Z"/>
            <path class="cls-29" d="m204.54,86.77c-2.39,1.37-2.4,3.6-.03,4.98,2.37,1.38,6.22,1.38,8.6,0,2.37-1.37,2.38-3.6.02-4.97-2.37-1.38-6.22-1.38-8.59,0Z"/>
            <path class="cls-29" d="m204.54,86.77c-2.39,1.37-2.4,3.6-.03,4.98,2.37,1.38,6.22,1.38,8.6,0,2.37-1.37,2.38-3.6.02-4.97-2.37-1.38-6.22-1.38-8.59,0Z"/>
            <g class="cls-45">
              <path class="cls-34" d="m204.13,91.98c2.58,1.5,6.78,1.5,9.38,0,1.01-.58,1.71-1.96,1.94-2.71.05.48,0,1.62,0,2.12,0,5.17-2.96,9.36-6.61,9.36s-6.61-4.19-6.61-9.36c0-.49-.07-1.65-.02-2.12.23.74.94,2.14,1.93,2.71Z"/>
            </g>
            <path class="cls-4" d="m204.52,91.75c-.22-.12-.41-.26-.59-.4-.03-.76.44-1.52,1.44-2.1,1.92-1.11,5.02-1.11,6.93,0,.98.57,1.46,1.33,1.42,2.08-.18.15-.38.28-.6.41-2.39,1.38-6.23,1.38-8.6,0Z"/>
            <path class="cls-20" d="m206.59,89.91c-1.27.47-1.28,1.24-.02,1.71,1.26.47,3.32.47,4.6,0,1.26-.47,1.27-1.23.01-1.71-1.27-.47-3.33-.47-4.59,0Z"/>
          </g>
          <g class="cls-45">
            <path d="m206.13,108.74c-1.9,1.1-1.91,2.89-.02,3.99,1.9,1.1,4.97,1.1,6.88,0,1.91-1.1,1.91-2.88.02-3.99-1.89-1.1-4.97-1.1-6.88,0Z"/>
          </g>
        </g>
        <g>
          <path class="cls-37" d="m220.56,118.49c-7.34,4.24-7.38,11.1-.09,15.33,7.28,4.24,19.13,4.23,26.47,0,7.33-4.23,7.37-11.09.09-15.33-7.28-4.23-19.13-4.23-26.46,0Z"/>
          <path class="cls-66" d="m218.32,118.49c-7.33,4.24-7.37,11.1-.09,15.33,7.29,4.24,19.13,4.23,26.47,0,7.33-4.23,7.37-11.09.09-15.33-7.28-4.23-19.13-4.23-26.46,0Z"/>
          <path class="cls-54" d="m218.32,116.81c-7.33,4.23-7.37,11.1-.09,15.33,7.29,4.23,19.13,4.23,26.47,0,7.33-4.23,7.37-11.09.09-15.33-7.28-4.23-19.13-4.23-26.46,0Z"/>
          <path class="cls-11" d="m218.23,132.14c-6.62-3.85-7.17-9.88-1.69-14.12,6.93-1.86,15.4-1.15,21.09,2.15,6.63,3.86,7.17,9.88,1.69,14.12-6.93,1.86-15.4,1.15-21.09-2.15Z"/>
          <path class="cls-66" d="m219.54,131.81c-3.3-1.92-5.12-4.52-5.11-7.31,0-2.81,1.85-5.43,5.2-7.36,3.2-1.85,7.44-2.87,11.94-2.87s8.72,1.02,11.91,2.87c3.3,1.92,5.12,4.52,5.12,7.32,0,2.81-1.85,5.43-5.19,7.36-3.21,1.85-7.46,2.87-11.95,2.87s-8.72-1.02-11.91-2.87Zm.83-13.38c-2.87,1.65-4.45,3.81-4.45,6.07,0,2.24,1.55,4.38,4.37,6.02,2.96,1.72,6.92,2.67,11.15,2.67s8.22-.95,11.2-2.68c2.87-1.65,4.44-3.81,4.45-6.07,0-2.24-1.55-4.38-4.38-6.02-2.96-1.72-6.92-2.67-11.16-2.67s-8.21.95-11.19,2.67Z"/>
          <path class="cls-66" d="m225.93,121.23c-3.1,1.79-3.12,4.69-.04,6.48,3.08,1.79,8.1,1.79,11.2,0,3.1-1.79,3.12-4.69.03-6.48-3.08-1.79-8.09-1.79-11.2,0Z"/>
          <path class="cls-54" d="m225.45,121.88c-3.11,1.79-3.12,4.7-.04,6.49,3.08,1.79,8.09,1.79,11.19,0,3.1-1.79,3.12-4.69.04-6.49-3.08-1.79-8.1-1.79-11.2,0Z"/>
        </g>
        <g>
          <g class="cls-45">
            <path d="m224.1,113.06c.16.1.16.25,0,.35l-3.81,2.21s-.05.03-.07.04c-.92.47-2.09.64-3.05.47l-9.58,5.57c-.4.23-1.04.23-1.44,0-.4-.23-.4-.61,0-.84l9.59-5.57c-.3-.55-.02-1.23.79-1.77.01-.02.04-.03.06-.04l3.81-2.21c.17-.1.44-.1.61,0,.17.1.17.26,0,.35l-3.69,2.15.41.24,3.69-2.15c.17-.1.44-.1.61,0,.17.1.17.26,0,.35l-3.69,2.15.43.25,3.69-2.15c.17-.1.44-.1.61,0,.16.1.16.26,0,.35l-3.7,2.15.45.26,3.69-2.14c.17-.1.44-.1.61,0Z"/>
          </g>
          <g>
            <g class="cls-14">
              <g class="cls-46">
                <g class="cls-14">
                  <polygon class="cls-40" points="220.54 110.6 220.54 111.03 220.54 111.04 220.54 110.6 220.54 110.6 220.54 110.6"/>
                  <path class="cls-3" d="m220.54,110.6v.43s0,.02,0,.03v-.43s0-.02,0-.03h0Z"/>
                  <path class="cls-10" d="m220.54,110.63v.43s0,.01,0,.02v-.43s0-.01,0-.02h0Z"/>
                  <path class="cls-1" d="m220.53,110.65v.43s0,.01,0,.02v-.43s0-.02,0-.02h0Z"/>
                  <path class="cls-76" d="m220.52,110.68v.43s-.01.02-.02.03v-.43s.02-.02.02-.03h0Z"/>
                  <path class="cls-2" d="m220.5,110.71v.43s-.02.02-.03.03v-.43s.02-.02.03-.03h0Z"/>
                  <path class="cls-63" d="m220.48,110.74v.43s-.03.03-.06.04v-.43s.04-.03.06-.04h0Z"/>
                  <polygon class="cls-32" points="220.42 110.77 220.42 111.2 220.41 111.21 220.42 110.78 220.42 110.77 220.42 110.77"/>
                </g>
              </g>
            </g>
            <g class="cls-14">
              <g class="cls-25">
                <g class="cls-14">
                  <path class="cls-3" d="m221.56,111.2v.43s0,.01,0,.02v-.43s0-.01,0-.02h0Z"/>
                  <path class="cls-10" d="m221.56,111.22v.43s0,.02,0,.02v-.43s0-.02,0-.03h0Z"/>
                  <path class="cls-1" d="m221.55,111.25v.43s0,.02-.01.03v-.43s.01-.02.01-.02h0Z"/>
                  <path class="cls-76" d="m221.54,111.27v.43s-.01.02-.02.02v-.43s.02-.02.02-.03h0Z"/>
                  <path class="cls-2" d="m221.52,111.3v.43s-.02.02-.03.03v-.43s.02-.02.03-.03h0Z"/>
                  <path class="cls-63" d="m221.5,111.32v.43s-.04.03-.05.04v-.43s.04-.02.05-.04h0Z"/>
                  <path class="cls-32" d="m221.44,111.36v.43h0v-.43s0,0,0,0h0Z"/>
                </g>
              </g>
            </g>
            <g class="cls-14">
              <g class="cls-13">
                <g class="cls-14">
                  <path class="cls-40" d="m222.6,111.79v.43s0,0,0,0v-.43s0,0,0,0h0Z"/>
                  <path class="cls-3" d="m222.6,111.79v.43s0,.02,0,.02v-.43s0-.02,0-.02h0Z"/>
                  <path class="cls-10" d="m222.59,111.82v.43s0,.02,0,.02v-.43s0-.02,0-.03h0Z"/>
                  <path class="cls-1" d="m222.59,111.84v.43s0,.02-.01.03v-.43s0-.01.01-.02h0Z"/>
                  <path class="cls-76" d="m222.58,111.87v.43s-.02.02-.02.02v-.43s.01-.02.02-.03h0Z"/>
                  <path class="cls-2" d="m222.56,111.89v.43s-.02.02-.03.03v-.43s.02-.02.03-.03h0Z"/>
                  <path class="cls-63" d="m222.53,111.92v.43s-.04.03-.05.04v-.43s.04-.03.05-.04h0Z"/>
                  <path class="cls-32" d="m222.48,111.96v.43s0,0-.01,0v-.43h.01Z"/>
                </g>
              </g>
            </g>
            <polygon class="cls-22" points="220.42 110.78 220.41 111.21 216.72 113.35 216.72 112.92 220.42 110.78"/>
            <polygon class="cls-22" points="221.44 111.37 221.44 111.79 217.74 113.94 217.74 113.51 221.44 111.37"/>
            <polygon class="cls-22" points="222.47 111.96 222.47 112.4 218.78 114.54 218.78 114.11 222.47 111.96"/>
            <g class="cls-14">
              <g class="cls-53">
                <g class="cls-14">
                  <path class="cls-64" d="m215.15,114.44v.43c-.08-.15-.12-.3-.12-.46v-.43c0,.15.04.31.12.45h0Z"/>
                </g>
              </g>
            </g>
            <path class="cls-22" d="m205.27,120.43c0,.16.1.31.3.42.09.05.21.1.33.12,0,0,0,0,.02,0,.12.03.24.04.37.04h.01c.12,0,.24-.02.36-.04.01,0,.03,0,.05-.01.11-.03.22-.07.32-.12l9.59-5.57c.11.02.23.03.35.05h.02c.11.01.22.02.34.02.03,0,.06,0,.09,0,.09,0,.18,0,.27,0,.04,0,.08,0,.12,0,.07,0,.14-.02.21-.02.08,0,.15-.02.22-.03.04,0,.09-.02.13-.02.2-.04.4-.08.59-.15.07-.03.15-.05.22-.08.05-.02.09-.03.14-.05.12-.05.23-.1.35-.15.02-.01.05-.02.07-.04l3.81-2.21s.07-.05.09-.08t0,0s.03-.06.03-.09h0v.44s0,.02,0,.02c0,.01,0,.02,0,.03,0,0,0,.02-.01.02,0,0,0,.01-.01.02,0,0,0,0,0,0h0s-.02.03-.03.04c-.01.02-.03.03-.05.04h0s-3.81,2.22-3.81,2.22c-.02.01-.05.02-.07.03-.11.06-.23.11-.35.16-.04.02-.08.03-.12.05-.07.02-.14.05-.22.07,0,0,0,0-.01,0-.19.06-.39.11-.59.15-.02,0-.04.01-.06.01-.02,0-.05,0-.07.01-.07.01-.15.02-.22.03-.04,0-.08.01-.12.02-.03,0-.05,0-.08,0-.05,0-.09,0-.13,0-.04,0-.08,0-.12,0h-.29c-.09,0-.17,0-.26-.01,0,0,0,0-.01,0-.02,0-.04,0-.06,0-.06,0-.11-.01-.17-.02-.05,0-.1-.01-.14-.02l-9.59,5.57c-.07.04-.15.07-.23.1-.02.01-.06.02-.08.03-.01,0-.04,0-.05.01-.02,0-.03.01-.05.01-.04,0-.09.02-.13.02-.03,0-.07,0-.11,0h-.11s-.07,0-.1,0c-.03,0-.07,0-.1-.01-.04,0-.07-.01-.1-.02-.01,0-.02,0-.04,0,0,0,0,0,0,0-.02,0-.04,0-.06-.01-.05-.01-.08-.03-.13-.04-.05-.02-.1-.05-.14-.07-.2-.11-.3-.27-.3-.42v-.43Z"/>
            <path class="cls-37" d="m223.52,112.22c.17.1.17.25,0,.35l-3.81,2.21s-.05.03-.07.04c-.92.47-2.1.64-3.04.46l-9.59,5.57c-.4.23-1.05.23-1.45,0-.4-.23-.4-.61,0-.84l9.59-5.57c-.3-.55-.02-1.23.79-1.76.01-.01.04-.03.06-.04l3.81-2.21c.17-.1.44-.1.61,0,.17.1.17.25,0,.35l-3.7,2.15.41.24,3.69-2.15c.17-.1.44-.1.61,0,.16.1.17.25,0,.35l-3.69,2.14.43.25,3.69-2.15c.17-.1.44-.1.61,0,.17.1.17.25,0,.35l-3.69,2.14.44.26,3.7-2.14c.17-.1.44-.1.6,0Z"/>
          </g>
        </g>
        <g>
          <g>
            <path class="cls-70" d="m205.15,195.25s3.97.99,2.77,3.21c-1.19,2.22-6.15,5.31-6.9,6.71-.74,1.4-5.02,6.28-6.18,5.67-1.17-.6-4.4-.16-3.48-6.1.94-5.92,8.46-10.25,13.79-9.5Z"/>
            <path class="cls-57" d="m203.4,154.45s6.4,2.09,1.55,33.94l-2.56,16.76s-3.54,6.42-12.46.97l1.54-34.71,11.93-16.97Z"/>
            <path class="cls-70" d="m201.2,211.72s-2.12,5.68,2.72,7.18c4.84,1.48,3.47-1.61,14.02,1.39,10.56,3.02,11.95-2.45,11.73-3.68-.21-1.22-7.23-3.64-9.54-4.31-2.3-.69-8.51-2.64-8.51-2.64l-10.76.35.33,1.72Z"/>
            <path class="cls-5" d="m214.8,161.72s4.71,1.8.02,32.81q-2.55,16.76-2.57,16.76s-3.55,6.42-12.46.97l1.54-34.72,13.46-15.82Z"/>
            <path class="cls-57" d="m205.48,184.44l3.99-2.04-3.62,32.85c-1.17-.43-2.45-1.09-3.85-2.09l3.48-28.71Z"/>
            <g>
              <polygon class="cls-17" points="207.11 183.23 207.8 226.22 204.29 225.03 203.75 181.6 207.11 183.23"/>
              <polygon class="cls-19" points="210.49 181.93 207.11 183.23 207.8 226.22 211.88 223.98 210.49 181.93"/>
            </g>
            <g>
              <polygon class="cls-17" points="169.79 204.74 164.61 247.42 161.29 245.76 166.68 202.67 169.79 204.74"/>
              <polygon class="cls-19" points="173.31 203.91 169.79 204.74 164.61 247.42 168.96 245.76 173.31 203.91"/>
            </g>
            <g>
              <polygon class="cls-17" points="135.66 185.53 130.48 228.21 127.17 226.56 132.55 183.46 135.66 185.53"/>
              <polygon class="cls-19" points="139.19 184.7 135.66 185.53 130.48 228.21 134.84 226.56 139.19 184.7"/>
            </g>
            <path class="cls-17" d="m170.74,205.01c.07-.14.17-.3.29-.48,0-.02.01-.02.02-.03.12-.16.26-.32.42-.5.11-.13.25-.26.37-.4.09-.08.17-.17.27-.26.33-.34.73-.68,1.17-1.06.08-.08.17-.15.27-.24.4-.34.84-.7,1.31-1.08.09-.06.17-.11.25-.18.53-.41,1.12-.86,1.74-1.31.16-.11.33-.24.49-.34.55-.4,1.14-.82,1.74-1.24.12-.08.23-.16.34-.24.7-.47,1.43-.96,2.17-1.46.24-.15.46-.29.68-.45.7-.44,1.4-.89,2.12-1.34.12-.08.23-.16.37-.24.82-.51,1.68-1.04,2.54-1.57.24-.14.48-.28.72-.43.91-.54,1.82-1.07,2.76-1.62,1.37-.79,2.72-1.55,4.02-2.26.08-.03.14-.08.22-.11,1.23-.67,2.41-1.29,3.54-1.87.11-.05.21-.11.3-.16,1.1-.54,2.14-1.06,3.12-1.51.09-.05.2-.09.3-.14.97-.46,1.91-.87,2.75-1.21.06-.04.13-.07.19-.08.6-.25,1.14-.46,1.65-.64.11-.04.22-.08.33-.11.48-.19.95-.33,1.36-.44.08-.02.16-.04.24-.06.22-.07.43-.11.63-.14.11-.03.23-.04.34-.06.06-.01.12-.01.17-.02.16-.01.32-.01.44-.01h0c.14.03.26.06.34.1h-.02l-37.46-21.77s-.04,0-.05-.02c-.03-.02-.06-.02-.09-.02-.04-.02-.08-.03-.13-.03,0,0-.02,0-.04-.01h-.1c-.08,0-.17,0-.27,0h-.07c-.06.01-.13.02-.17.02-.07.02-.13.02-.2.02-.04,0-.09.02-.12.03-.22.02-.44.08-.71.15-.05,0-.09.02-.14.03,0,0-.03,0-.06.02-.4.12-.88.27-1.37.43-.1.04-.2.08-.29.11-.53.19-1.09.41-1.71.66-.01,0-.03,0-.05.02-.03,0-.06.02-.09.05-.86.34-1.78.74-2.75,1.21-.13.06-.25.12-.38.17-.95.45-1.93.93-2.98,1.46-.16.08-.32.17-.49.26-1.08.55-2.17,1.12-3.31,1.74-.15.08-.29.17-.43.25-1.27.68-2.59,1.43-3.95,2.22-.93.54-1.84,1.07-2.75,1.61-.23.14-.48.29-.72.44-.87.52-1.72,1.05-2.55,1.56-.13.08-.26.16-.39.24-.7.46-1.41.9-2.08,1.34-.23.15-.46.29-.68.44-.76.5-1.47.98-2.17,1.46-.14.08-.27.18-.41.27-.57.41-1.13.8-1.67,1.18-.17.13-.36.25-.53.39-.6.45-1.18.87-1.69,1.27-.12.09-.22.18-.33.27-.44.33-.83.66-1.21.99-.12.08-.24.2-.36.28-.41.37-.78.71-1.11,1.02-.02.02-.06.05-.09.07-.11.1-.18.2-.28.29-.09.09-.19.21-.28.3-.02.01-.05.04-.06.06h0c-.11.12-.2.23-.28.33-.04.04-.07.08-.09.12-.03.02-.03.02-.03.03,0,0,0,.02-.03.02-.04.06-.07.12-.11.18-.02.03-.03.06-.06.07-.01.04-.03.06-.03.09-.03.02-.03.04-.04.08-.02.03-.03.06-.04.07-.02.03-.02.05-.03.08,0,.01-.02.04-.03.06,0,.01,0,.04-.01.05,0,.03-.01.04-.01.07v.06s0,.04,0,.04c0,.15.06.27.19.35l37.46,21.77c-.14-.07-.2-.19-.21-.35,0-.1.05-.22.11-.37t0-.02Z"/>
            <path class="cls-36" d="m190.78,190.54c11.12-6.42,20.12-10.18,20.15-8.38,0,1.79-8.99,8.46-20.13,14.88-11.14,6.43-21.01,9.92-21.02,8.12,0-1.79,9.87-8.18,20.99-14.61Z"/>
            <polygon class="cls-17" points="168.57 214.73 131.5 191.86 131.41 197.95 167.82 220.94 168.57 214.73"/>
            <polygon class="cls-19" points="134.61 193.78 138.33 192.89 165.93 208.67 165.54 212.86 134.61 193.78"/>
            <polygon class="cls-19" points="172.29 213.67 207.27 192.76 207.37 199.19 171.54 220.94 172.29 213.67"/>
            <polygon class="cls-17" points="207.27 192.76 203.75 191.86 172.68 209.91 172.29 213.67 207.27 192.76"/>
            <path class="cls-57" d="m145.92,174.64s-.3,17.15,16.57,11.11c16.86-6.03,28.39-11.55,28.39-11.55,0,0,20.83-16.82,11.87-20.04-8.86-7.62-55.95,19.97-56.83,20.48Z"/>
            <path class="cls-5" d="m153.18,182.26s2.3,15.66,19.18,9.62c16.87-6.04,35.72-17.56,35.72-17.56,0,0,13.51-10.82,4.55-14.03,0,0-8.62-7.41-59.44,21.97Z"/>
            <path class="cls-33" d="m182.32,123.27s2.89-4.73,3.87-5.46c.96-.72,5.62-3.64,9.64-2.63,2.18.53-.63,1.81-3.56,3.38-1.32.7-2.46.93-3.21,3.35-.54,1.76-2.11,4.12-3.02,5.12-.91,1.02-3.71-3.77-3.71-3.77Z"/>
            <path class="cls-15" d="m186.24,126.89c.91-1.01,2.21-3.44,3.8-4.36,1.89-1.12.9-3.27,2.22-3.97,2.28-1.22,4.71-1.94,4.35-2.67-1.66,1.05-4.53-1.1-7.78,2.84-1.19,1.43-2.88,5.98-3.55,8.03.8.76.59.51.95.12Z"/>
            <path class="cls-72" d="m140.41,131.99s-2.4,6.57,6.66,7.93c9.04,1.34,26.16,1.85,29.74-1.2,3.57-3.07,10.09-12.68,10.09-12.68,0,0-4.52-.43-4.54-4.28l-12.12,10.12s-28.26-4.52-29.82.1Z"/>
            <path class="cls-67" d="m140.41,131.99c1.56-4.63,29.82-.1,29.82-.1l12.12-10.12c0,1.43.65,2.39,1.43,3.03-2.13,3.01-6.08,8.37-8.59,10.5-3.58,3.07-20.71,2.56-29.74,1.2-2.63-.39-4.27-1.23-5.3-2.21-.11-1.3.26-2.29.26-2.29Z"/>
            <path class="cls-67" d="m171.9,127.36s-24.53-14.38-29.8-7.07c0,0-4.82,6.08,1.62,21.26,6.45,15.19,2.15,30.37.68,40.83,0,0,33.35,4.32,36.62-4.66,2.44-6.7-5.73-24.89-1.51-28.47,3.92-3.33,2.74-11.76-2.71-15.63-5.46-3.85-4.9-6.27-4.9-6.27Z"/>
            <g>
              <g>
                <path class="cls-33" d="m170.67,102.42c1.48,17.55-5.46,14.59-6.33,18.22-.12.51-.08.47.57,4.21.18,2.57-11.75,2.14-11.48-1.54.1-1.24.44-5.5.44-5.5,0,0,.38-7.11-.07-9.3-1.42-6.9,2.99-7.44,6.65-10.71,3.69-3.29,9.61-2.45,10.21,4.61Z"/>
                <path class="cls-31" d="m145.32,101.95c.02-.15.05-.3.09-.44.47-2.61,2.38-5.34,6.41-8.2,4.77-3.39,12.04-2.72,16.47.86.87.71,1.81,1.28,2.31,2.34.44.93.73,3.15.76,4.22.05,1.86-.34,3.73-1.12,5.41-.78,1.67-1.93,2.33-2.98,2.96-.11-.29-.27-.52-.48-.68-.82-.65-2.22-.13-3.1,1.66-.79,1.57-.09,5.57-1.05,6.41-4.82,4.21-8.73,1.46-9.87.83-.38-.28-9.16-8.2-7.44-15.37Z"/>
                <path class="cls-58" d="m149.93,95.05c0-.56,2.25,0,2.81.57,3.38,5.07,7.32,7.32,12.95,6.19,2.12-.42,3.94-1.81,5.41-3.42.16.85.25,1.77.27,2.34.05,1.86-.34,3.73-1.12,5.41-.78,1.67-1.93,2.33-2.98,2.96-.11-.29-.27-.52-.48-.68-.82-.65-2.22-.13-3.1,1.66-.79,1.57-.09,5.57-1.05,6.41-4.82,4.21-8.73,1.46-9.87.83-.2-.14-2.78-2.46-4.89-5.67-.59-5.58-.04-11.23,2.06-16.6Z"/>
              </g>
              <path class="cls-58" d="m150.48,123.78c0-9.58-3.37-19.16,1.14-28.16.26-.27.52-.91.98-1.39.74.03,1.33.37,1.58,1.16.89,2.82-2.19,5.17-2.24,7.64-.02.83-.23,1.63-.29,2.48-.09,1.35.15,2.77.28,4.11.26,2.81.76,6.04,2.22,8.5,1.33,2.24,1.14,5.68.87,8.26-.37,3.58-1.15,7.02-3.73,9.71-1.7,1.77-4.08,4.18-6.6,4.64-.76.15-1.49.09-2.21-.03,4.92-3.8,7.99-10.71,7.99-16.91Z"/>
              <path class="cls-31" d="m139.7,120.45c-.08-4.04.48-8.12,1.59-12.01,1.15-4.05,2.79-8.4,5.83-11.46,1.4-1.41,3.83-2.82,5.48-2.76-.45.48-.72,1.13-.98,1.39-4.51,9.01-1.14,18.59-1.14,28.16,0,6.2-3.07,13.11-7.99,16.91-.97-.18-1.9-.49-2.87-.69-1.63-.34.15-16.65.08-19.55Z"/>
            </g>
            <path class="cls-72" d="m169.26,125.9s-8.04,2.76-4.79,13.59c3.25,10.82,7.54,35.63,4.79,43.54,0,0,14.54,1.8,11.98-11.84,0,0-3.6-17.41-2.68-20.37.93-2.95,7.45-20.29-9.31-24.92Z"/>
            <path class="cls-62" d="m122.81,129.13c0-.14.02-.27.05-.4,0-.08.03-.15.03-.21,0-.04.02-.09.02-.12,0-.02.01-.05.03-.08,0-.03.01-.06.02-.09.01-.04.02-.05.03-.08,0-.02.01-.03.02-.05,0,0,.01-.02.02-.04.01,0,.02-.03.02-.03,0-.01.01-.02.02-.04.01,0,.01-.03.01-.03,0-.01.03-.02.05-.03,0,0,0-.02.02-.02,0-.01,0-.01,0-.02,0,0,.02-.03.02-.03,0-.02.04-.03.05-.03.02,0,.03-.02.05-.02h.14s.03,0,.05.02c.01,0,.03,0,.04,0,.03.02.03.03.05.05h0l37.44,26.5h0c-.08-.05-.13-.08-.2-.08h0c-.08,0-.13.04-.19.09,0,0,0,0-.02,0,0,.02-.01.03-.01.03,0,.01-.02.03-.03.05,0,0-.02.01-.02.01-.01.02-.03.03-.03.05t-.01.03s0,.04-.02.05c0,.01,0,.03-.02.04-.01.02-.01.05-.02.08,0,.02-.02.05-.03.08-.01.03-.02.06-.03.09-.01.03-.02.07-.03.11,0,.06-.02.14-.03.21-.03.13-.04.25-.04.39-.4,3.69-.09,14.77,3.25,26.67,4.14,14.78,5.08,19.86,6.27,22.85l-36.73-20.92c-1.38-.97-4.52-15.64-7-28.43-2.34-12.13-3.64-22.99-3.24-26.67Z"/>
            <path class="cls-36" d="m160.8,154.3s15.39,49.23,8.98,50.85c0,0-15.65-43.13-8.98-50.85Z"/>
            <polygon class="cls-26" points="230.37 130.12 207.43 151.78 177.13 134.29 200.07 112.63 230.37 130.12"/>
            <g>
              <g>
                <path class="cls-33" d="m205,154.1s3.8-.52,6.19-1.74c2.26-1.15,5.15-4.75,5.72-6.69.53-1.92.82-2.87-.73-2.48-1.56.37-5.67,2.96-7.77,4.9-2.11,1.91-2.53,1.64-3.31,1.93-.74.28-2.66,3.04-.1,4.07Z"/>
                <path class="cls-15" d="m205.1,150.02c.78-.3,1.2-.02,3.31-1.93,2.1-1.94,6.21-4.53,7.77-4.9.22-.07.41-.09.59-.1-1.23,1.27-3.32,3.44-5.18,5.29-2.33,2.31-5.91,3.17-7.05,3.4-.15-.85.18-1.6.57-1.75Z"/>
              </g>
              <path class="cls-67" d="m168.89,128.08c1.93-1.33,5.89-1.94,8.7,3.63,2.8,5.56,9.24,18.69,9.24,18.69,0,0,17.68-.85,19.64-.94,0,0-2.45,2.26-.12,4.86,0,0-18.53,8.43-23.6,6.07-5.05-2.38-21.8-26.84-13.86-32.31Z"/>
            </g>
            <path class="cls-15" d="m206.47,149.46s.56-2.85,1.88-3.98c1.32-1.13,2.05-2.39,2.28-2.64.23-.25.71-.06.5.69-.21.76-1.78,3.33-1.28,3.9.41.47-1.43,2.74-3.39,2.03Z"/>
            <path class="cls-33" d="m185.02,125.36s5.31-2.36,6.86-3.52c1.54-1.15,2.16-2.6,1.68-2.66-.47-.06-5.23,3.1-5.85,1.15-.33-1.03-1.97,4.42-2.69,5.03Z"/>
          </g>
          <polygon class="cls-12" points="200.74 117.52 222.86 130.46 220.43 132.21 198.35 120.09 200.74 117.52"/>
          <polygon class="cls-12" points="195.91 122.32 218.03 135.26 215.6 137.01 193.52 124.89 195.91 122.32"/>
          <polygon class="cls-12" points="191.75 127.25 213.87 140.19 211.44 141.94 189.36 129.82 191.75 127.25"/>
        </g>
      </g>
      <g>
        <path class="cls-45" d="m95.49,216.6c6.05,3.49,6.05,9.16,0,12.65-6.05,3.49-15.86,3.49-21.91,0-6.06-3.49-6.06-9.16,0-12.65,6.05-3.5,15.86-3.5,21.91,0Z"/>
        <g>
          <path class="cls-47" d="m92.85,220.34c3.33,1.92,3.35,5.05.03,6.98-3.31,1.92-8.7,1.92-12.03,0-3.34-1.93-3.36-5.06-.04-6.98,3.32-1.92,8.71-1.92,12.05,0Z"/>
          <polygon class="cls-47" points="76.54 209.88 78.34 223.83 95.34 224.4 97.16 209.88 76.54 209.88"/>
          <path class="cls-23" d="m94.12,205.66c4.03,2.33,4.06,6.11.04,8.44-4.01,2.32-10.54,2.32-14.57,0-4.04-2.34-4.06-6.11-.05-8.45,4.01-2.33,10.53-2.33,14.58,0Z"/>
          <path class="cls-44" d="m93.07,206.26c3.46,1.99,3.48,5.23.04,7.23-3.44,2-9.03,2-12.49,0-3.46-2-3.48-5.24-.04-7.23,3.44-2,9.03-1.99,12.49,0Z"/>
          <path class="cls-35" d="m88.49,210.53c0,.89-.84,1.61-1.87,1.61h0c-1.03,0-1.86-.72-1.86-1.61v-29.26c0-.9.83-1.62,1.86-1.62h0c1.03,0,1.87.72,1.87,1.62v29.26Z"/>
          <path class="cls-41" d="m89.38,181.47s3.51,2.86-9.01,7.47c-12.51,4.61-16.69,7.34-16.91,10.26-.22,2.92-2.63-20.2,16.25-21.27,0,0,6.59-.4,9.67,3.55Z"/>
          <path class="cls-74" d="m89.28,183.93c-3.3-2.12-7.77-1.84-7.77-1.84-10.31.57-14.27,7.74-15.71,13.65,2.43-1.89,6.94-3.99,14.57-6.81,5.56-2.05,7.94-3.75,8.9-5Z"/>
          <path class="cls-41" d="m84.32,180.26s-3.51,2.85,9.01,7.46c12.51,4.61,16.69,7.34,16.91,10.26.22,2.92,2.63-20.2-16.25-21.27,0,0-6.6-.41-9.67,3.55Z"/>
          <path class="cls-74" d="m93.33,187.73c7.53,2.77,12.02,4.87,14.47,6.73-1.52-5.82-5.53-12.66-15.6-13.23,0,0-4.31-.26-7.59,1.72,1.06,1.24,3.49,2.85,8.72,4.78Z"/>
          <path class="cls-41" d="m84.82,182.85s1.65,3.24,7.39-5.81c5.74-9.06,8.59-11.87,10.93-11.55,2.32.32-15.43-5.49-19.47,9.17,0,0-1.43,5.1,1.15,8.19Z"/>
          <path class="cls-41" d="m87.78,179.58s3.64-.24-1.23,9.35c-4.87,9.6-5.84,13.49-4.37,15.34,1.47,1.85-12.64-10.5-2.06-21.48,0,0,3.67-3.85,7.66-3.2Z"/>
          <path class="cls-41" d="m88.49,182.14s-1,3.72-8.03-4.9c-7.02-8.62-10.22-11.12-12.38-10.39-2.16.74,13.71-8.46,20.08,6.4,0,0,2.25,5.17.33,8.88Z"/>
          <path class="cls-74" d="m86.6,182.81c.69-3.41-.93-7.13-.93-7.13-3.59-8.36-10.17-9.1-14.87-8.29,2.1,1.21,5.06,4.22,9.65,9.86,3.04,3.74,4.96,5.15,6.15,5.56Z"/>
        </g>
      </g>
    </g>
  </g>
</svg>